<?xml version="1.0" encoding="UTF-8" standalone="no"?>
<!-- Created with Inkscape (http://www.inkscape.org/) -->

<svg
   width="210mm"
   height="297mm"
   viewBox="0 0 210 297"
   version="1.1"
   id="svg5"
   xml:space="preserve"
   sodipodi:docname="triptyque.svg"
   inkscape:version="1.2.2 (732a01da63, 2022-12-09, custom)"
   xmlns:inkscape="http://www.inkscape.org/namespaces/inkscape"
   xmlns:sodipodi="http://sodipodi.sourceforge.net/DTD/sodipodi-0.dtd"
   xmlns:xlink="http://www.w3.org/1999/xlink"
   xmlns="http://www.w3.org/2000/svg"
   xmlns:svg="http://www.w3.org/2000/svg"><sodipodi:namedview
     id="namedview7"
     pagecolor="#ffffff"
     bordercolor="#666666"
     borderopacity="1.0"
     inkscape:showpageshadow="2"
     inkscape:pageopacity="0.0"
     inkscape:pagecheckerboard="0"
     inkscape:deskcolor="#d1d1d1"
     inkscape:document-units="mm"
     showgrid="false"
     inkscape:zoom="1.6053171"
     inkscape:cx="324.54648"
     inkscape:cy="585.86557"
     inkscape:window-width="1874"
     inkscape:window-height="1016"
     inkscape:window-x="1966"
     inkscape:window-y="27"
     inkscape:window-maximized="1"
     inkscape:current-layer="layer1" /><defs
     id="defs2"><rect
       x="-353.7816"
       y="462.074"
       width="110.58344"
       height="211.84781"
       id="rect6139" /><rect
       x="269.31958"
       y="473.49235"
       width="351.53023"
       height="124.7699"
       id="rect3447" /><rect
       x="269.31958"
       y="473.49235"
       width="351.53023"
       height="124.7699"
       id="rect3505" /><rect
       x="269.31958"
       y="473.49235"
       width="351.53023"
       height="124.7699"
       id="rect5995" /></defs><g
     inkscape:label="Calque 1"
     inkscape:groupmode="layer"
     id="layer1"><g
       id="g6059"
       transform="translate(5.7570822,-47.773252)"
       inkscape:export-filename="../6f4a7fe8/triptyque.png"
       inkscape:export-xdpi="200.34"
       inkscape:export-ydpi="200.34"><path
         style="fill:#ca2caa;fill-opacity:1;stroke-width:0.264583"
         d="m 125.47951,212.33931 c -2.06964,-3.411 -4.30324,-6.72887 -6.18651,-9.8041 3.04489,-6.22954 1.92316,-15.36861 -2.43575,-20.25003 -2.24987,-2.72209 -6.24679,-4.88038 -10.05465,-5.19105 0.35408,-0.63315 1.32856,-2.70901 2.8654,-5.5203 1.53685,-2.8113 2.8052,-5.2963 2.81857,-5.52224 -2.14336,-4.22546 -3.48688,-6.98043 -5.40649,-10.66606 l 1.27522,0.18239 c 4.87047,0.69659 8.60127,1.63664 12.82469,3.66858 13.19869,6.35005 21.71078,19.98947 21.66043,34.70777 -0.0195,5.69323 -1.80473,12.82358 -4.42359,17.66787 l -0.67942,1.25677 c -4.22564,-0.18552 -8.64552,-0.37671 -12.2579,-0.5296 z"
         id="path1196"
         sodipodi:nodetypes="ccccsccsssscc" /><g
         id="g6053"><path
           style="fill:#fa2a96;fill-opacity:1;stroke-width:0.264583"
           d="m 69.093266,208.43489 c -6.15345,-14.6108 -2.4659,-31.77433 9.18056,-42.73048 5.938,-5.58605 13.02034,-8.94609 21.05083,-9.98705 1.633864,-0.18493 3.444564,-0.29278 4.921904,-0.26078 1.65448,3.35956 5.20793,10.47349 5.20793,10.47349 l -6.24523,11.06385 c -3.13397,0.41541 -8.009744,2.45758 -10.361554,4.85874 -3.47078,3.54362 -4.75875,6.35806 -4.95054,11.17251 -0.0981,2.46293 -0.0218,3.42082 0.40034,5.02708 0.28684,1.09141 0.50366,2.00461 0.48182,2.02933 -4.0365,0.17245 -8.52993,0.29817 -12.57562,0.42835 -1.9892,3.19997 -4.15562,6.75727 -6.11551,9.9658 -0.0728,0.004 -0.52048,-0.91428 -0.99493,-2.04083 z"
           id="path1192"
           sodipodi:nodetypes="ssccccssscccss" /><path
           style="fill:#9538c5;fill-opacity:1;stroke-width:0.264583"
           d="m 89.644956,229.03848 c -5.83921,-2.43459 -11.4577,-6.70778 -15.17223,-11.53937 -1.85029,-2.40673 -3.06161,-4.40417 -3.06161,-4.61491 0,-0.24751 5.80666,-9.78236 6.0398,-10.21722 3.58812,-0.21363 7.84644,-0.28925 12.61332,-0.43046 l 0.51853,0.97626 c 0.83167,1.56585 4.10736,4.43409 6.27973,5.49862 2.62623,1.28695 4.725724,1.77624 7.621544,1.77624 4.40213,0 8.19122,-1.4706 11.36853,-4.4123 l 1.83565,-1.69953 c 1.75908,2.72715 4.71723,7.51221 6.48694,10.28025 0,0 7.27051,0.15923 12.12091,0.4618 l -1.21215,1.61119 c -5.85195,7.77838 -15.09191,13.35735 -24.51447,14.8015 -7.28955,0.97774 -14.290224,0.22299 -20.924494,-2.49207 z"
           id="path1198"
           sodipodi:nodetypes="cssccsssscccscc" /></g></g><text
       xml:space="preserve"
       id="text3503"
       style="font-size:6.72844px;line-height:1.25;font-family:'Open Sans';-inkscape-font-specification:'Open Sans, Normal';white-space:pre;fill:#ca2caa;fill-opacity:1"><textPath
         xlink:href="#path6066"
         id="textPath6068"><tspan
           id="tspan3501"
           style="font-style:normal;font-variant:normal;font-weight:bold;font-stretch:normal;font-family:Ubuntu;-inkscape-font-specification:Ubuntu;fill:#ca2caa;fill-opacity:1">Habitants</tspan></textPath></text><text
       xml:space="preserve"
       id="text5993"
       style="font-size:6.72844px;line-height:1.25;font-family:'Open Sans';-inkscape-font-specification:'Open Sans, Normal';white-space:pre;fill:#fa2a96;fill-opacity:1"><textPath
         xlink:href="#path6049"
         id="textPath6063"><tspan
           id="tspan5991"
           style="font-style:normal;font-variant:normal;font-weight:bold;font-stretch:normal;font-family:Ubuntu;-inkscape-font-specification:Ubuntu;fill:#fa2a96;fill-opacity:1">Collectivité locale</tspan></textPath></text><path
       style="fill:none;fill-opacity:1;stroke:none;stroke-width:1.06;stroke-linecap:round;stroke-linejoin:round;stop-color:#000000"
       id="path6049"
       sodipodi:type="arc"
       sodipodi:cx="110.25111"
       sodipodi:cy="145.88911"
       sodipodi:rx="42.527397"
       sodipodi:ry="42.527397"
       sodipodi:start="3.0273109"
       sodipodi:end="4.4703605"
       sodipodi:open="true"
       sodipodi:arc-type="arc"
       d="M 68.001118,150.73865 A 42.527397,42.527397 0 0 1 100.05846,104.60123" /><path
       style="fill:none;fill-opacity:1;stroke:none;stroke-width:1.06;stroke-linecap:round;stroke-linejoin:round;stop-color:#000000"
       id="path6066"
       sodipodi:type="arc"
       sodipodi:cx="110.25107"
       sodipodi:cy="145.88911"
       sodipodi:rx="42.527397"
       sodipodi:ry="42.527397"
       sodipodi:start="5.4608353"
       sodipodi:end="6.2345401"
       sodipodi:open="true"
       sodipodi:arc-type="arc"
       d="m 139.19101,114.72729 a 42.527397,42.527397 0 0 1 13.53715,29.09389" /><path
       style="fill:none;fill-opacity:1;stroke:none;stroke-width:1.01901;stroke-linecap:round;stroke-linejoin:round;stop-color:#000000"
       id="path6128"
       sodipodi:type="arc"
       sodipodi:cx="-100.27931"
       sodipodi:cy="152.60045"
       sodipodi:rx="42.57172"
       sodipodi:ry="39.260891"
       sodipodi:start="1.2134377"
       sodipodi:end="2.1835179"
       sodipodi:arc-type="arc"
       d="m -85.387684,189.381 a 42.57172,39.260891 0 0 1 -39.374456,-4.66177"
       sodipodi:open="true"
       transform="scale(-1,1)" /><text
       xml:space="preserve"
       id="text6132"
       style="font-size:6.72844px;line-height:1.25;font-family:'Open Sans';-inkscape-font-specification:'Open Sans, Normal';white-space:pre;fill:#9538c5;fill-opacity:1"
       transform="rotate(3.0058926,98.575514,324.74076)"><textPath
         xlink:href="#path6128"
         id="textPath6134"><tspan
           id="tspan6130"
           style="font-style:normal;font-variant:normal;font-weight:bold;font-stretch:normal;font-family:Ubuntu;-inkscape-font-specification:Ubuntu;fill:#9538c5;fill-opacity:1">Chercheurs</tspan></textPath></text><text
       xml:space="preserve"
       transform="matrix(0.2686252,0,0,0.2686252,190.2895,17.492223)"
       id="text6137"
       style="font-size:13.3333px;line-height:1.25;font-family:'Open Sans';-inkscape-font-specification:'Open Sans, Normal';white-space:pre;shape-inside:url(#rect6139);display:inline;fill:#4d4d4d"
       x="97.872871"
       y="0"><tspan
         x="-350.24236"
         y="474.50742"
         id="tspan6223"><tspan
           style="font-weight:bold;font-family:Ubuntu;-inkscape-font-specification:Ubuntu;text-align:center;text-anchor:middle"
           id="tspan6221">Environnements </tspan></tspan><tspan
         x="-348.75569"
         y="491.47568"
         id="tspan6227"><tspan
           style="font-weight:bold;font-family:Ubuntu;-inkscape-font-specification:Ubuntu;text-align:center;text-anchor:middle"
           id="tspan6225">sonores urbains</tspan></tspan></text></g></svg>
