<?xml version="1.0" encoding="UTF-8" standalone="no"?>
<!-- Created with Inkscape (http://www.inkscape.org/) -->

<svg
   width="210mm"
   height="297mm"
   viewBox="0 0 210 297"
   version="1.1"
   id="svg5"
   inkscape:version="1.2.2 (732a01da63, 2022-12-09, custom)"
   sodipodi:docname="leq.svg"
   xml:space="preserve"
   xmlns:inkscape="http://www.inkscape.org/namespaces/inkscape"
   xmlns:sodipodi="http://sodipodi.sourceforge.net/DTD/sodipodi-0.dtd"
   xmlns="http://www.w3.org/2000/svg"
   xmlns:svg="http://www.w3.org/2000/svg"><sodipodi:namedview
     id="namedview7"
     pagecolor="#ffffff"
     bordercolor="#666666"
     borderopacity="1.0"
     inkscape:showpageshadow="2"
     inkscape:pageopacity="0.0"
     inkscape:pagecheckerboard="0"
     inkscape:deskcolor="#d1d1d1"
     inkscape:document-units="mm"
     showgrid="false"
     inkscape:zoom="0.6287004"
     inkscape:cx="399.23627"
     inkscape:cy="744.39272"
     inkscape:window-width="1680"
     inkscape:window-height="1013"
     inkscape:window-x="1920"
     inkscape:window-y="0"
     inkscape:window-maximized="1"
     inkscape:current-layer="layer1" /><defs
     id="defs2"><rect
       x="168.38959"
       y="540.59348"
       width="74.166073"
       height="20.666365"
       id="rect5456" /><marker
       style="overflow:visible"
       id="Arrow2"
       refX="0"
       refY="0"
       orient="auto-start-reverse"
       inkscape:stockid="Arrow2"
       markerWidth="7.6999998"
       markerHeight="5.5999999"
       viewBox="0 0 7.7 5.6"
       inkscape:isstock="true"
       inkscape:collect="always"
       preserveAspectRatio="xMidYMid"><path
         transform="scale(0.7)"
         d="M -2,-4 9,0 -2,4 c 2,-2.33 2,-5.66 0,-8 z"
         style="fill:context-stroke;fill-rule:evenodd;stroke:none"
         id="arrow2L" /></marker><clipPath
       id="p180ac7933c"
       style="stroke-linecap:butt;stroke-linejoin:round"><rect
         height="388.07999"
         width="837"
         x="135"
         y="60.48"
         id="rect430"
         style="stroke-linecap:butt;stroke-linejoin:round" /></clipPath><rect
       x="168.38959"
       y="540.59348"
       width="123.81735"
       height="47.125007"
       id="rect5498" /><rect
       x="168.38959"
       y="540.59348"
       width="74.166073"
       height="20.666365"
       id="rect6072" /><rect
       x="168.38959"
       y="540.59348"
       width="74.166073"
       height="20.666365"
       id="rect6084" /><rect
       x="168.38959"
       y="540.59348"
       width="74.166073"
       height="20.666365"
       id="rect6171" /><rect
       x="168.38959"
       y="540.59348"
       width="149.43646"
       height="48.200185"
       id="rect6173" /><rect
       x="168.38959"
       y="540.59348"
       width="74.166073"
       height="20.666365"
       id="rect6175" /><rect
       x="168.38959"
       y="540.59348"
       width="74.166073"
       height="20.666365"
       id="rect6177" /><rect
       x="168.38959"
       y="540.59348"
       width="187.99444"
       height="21.037293"
       id="rect6205" /><rect
       x="168.38959"
       y="540.59348"
       width="187.99444"
       height="21.037293"
       id="rect6275" /><rect
       x="168.38959"
       y="540.59348"
       width="74.166073"
       height="20.666365"
       id="rect6545" /><rect
       x="168.38959"
       y="540.59348"
       width="115.45437"
       height="54.815359"
       id="rect6557" /><rect
       x="168.38959"
       y="540.59348"
       width="109.62771"
       height="38.917126"
       id="rect6724" /><rect
       x="168.38959"
       y="540.59348"
       width="74.166073"
       height="20.666365"
       id="rect9386" /><rect
       x="168.38959"
       y="540.59348"
       width="74.166073"
       height="20.666365"
       id="rect12913" /><rect
       x="168.38959"
       y="540.59348"
       width="123.81735"
       height="47.125007"
       id="rect12915" /><rect
       x="168.38959"
       y="540.59348"
       width="74.166073"
       height="20.666365"
       id="rect12917" /><rect
       x="168.38959"
       y="540.59348"
       width="74.166073"
       height="20.666365"
       id="rect12919" /><rect
       x="168.38959"
       y="540.59348"
       width="74.166073"
       height="20.666365"
       id="rect12921" /><rect
       x="168.38959"
       y="540.59348"
       width="149.43646"
       height="48.200185"
       id="rect12923" /><rect
       x="168.38959"
       y="540.59348"
       width="74.166073"
       height="20.666365"
       id="rect12925" /><rect
       x="168.38959"
       y="540.59348"
       width="74.166073"
       height="20.666365"
       id="rect12927" /><rect
       x="168.38959"
       y="540.59348"
       width="403.28483"
       height="22.356091"
       id="rect12929" /><rect
       x="168.38959"
       y="540.59348"
       width="187.99444"
       height="21.037293"
       id="rect12931" /><rect
       x="168.38959"
       y="540.59348"
       width="74.166073"
       height="20.666365"
       id="rect12933" /><rect
       x="168.38959"
       y="540.59348"
       width="115.45437"
       height="54.815359"
       id="rect12935" /><rect
       x="168.38959"
       y="540.59348"
       width="109.62771"
       height="38.917126"
       id="rect12937" /><rect
       x="168.38959"
       y="540.59348"
       width="74.166073"
       height="20.666365"
       id="rect12939" /><rect
       x="168.38959"
       y="540.59348"
       width="74.166073"
       height="20.666365"
       id="rect12969" /><rect
       x="168.38959"
       y="540.59348"
       width="115.45437"
       height="54.815359"
       id="rect27626" /><rect
       x="168.38959"
       y="540.59348"
       width="74.166073"
       height="20.666365"
       id="rect7253" /><rect
       x="168.38959"
       y="540.59348"
       width="74.166073"
       height="20.666365"
       id="rect7255" /><rect
       x="168.38959"
       y="540.59348"
       width="74.166073"
       height="20.666365"
       id="rect7257" /><rect
       x="168.38959"
       y="540.59348"
       width="74.166073"
       height="20.666365"
       id="rect7259" /><rect
       x="168.38959"
       y="540.59348"
       width="74.166073"
       height="20.666365"
       id="rect7261" /><rect
       x="168.38959"
       y="540.59348"
       width="74.166073"
       height="20.666365"
       id="rect7263" /><rect
       x="168.38959"
       y="540.59348"
       width="403.28483"
       height="22.356091"
       id="rect7265" /><rect
       x="168.38959"
       y="540.59348"
       width="74.166073"
       height="20.666365"
       id="rect7267" /><rect
       x="168.38959"
       y="540.59348"
       width="74.166073"
       height="20.666365"
       id="rect7269" /><rect
       x="168.38959"
       y="540.59348"
       width="74.166073"
       height="20.666365"
       id="rect7271" /><rect
       x="168.38959"
       y="540.59348"
       width="115.45437"
       height="54.815359"
       id="rect7273" /><rect
       x="168.38959"
       y="540.59348"
       width="115.45437"
       height="54.815359"
       id="rect7275" /><rect
       x="168.38959"
       y="540.59348"
       width="74.166073"
       height="20.666365"
       id="rect7291" /><rect
       x="168.38959"
       y="540.59348"
       width="74.166073"
       height="20.666365"
       id="rect8153" /><rect
       x="168.38959"
       y="540.59348"
       width="74.166073"
       height="20.666365"
       id="rect8169" /></defs><g
     inkscape:label="Calque 1"
     inkscape:groupmode="layer"
     id="layer1"><rect
       style="fill:#f9f9f9;fill-opacity:1;stroke:none;stroke-width:0.169;stroke-linecap:round;stroke-dasharray:none;stroke-dashoffset:0;stroke-opacity:0.316178;stop-color:#000000"
       id="rect12825"
       width="179.21036"
       height="77.896843"
       x="15.394821"
       y="113.37785"
       inkscape:export-filename="../6d8214c5/leq_diff_dynamiques.png"
       inkscape:export-xdpi="200.34"
       inkscape:export-ydpi="200.34" /><path
       sodipodi:nodetypes="cccccccccccccccccccccccccccccccccccccccccccccccccccccccccccccccccccccccccccccccccccccccccccccccccccccccccccccccccccccccccccccccccccccccccccccccccccccccccc"
       d="m 135.14209,156.4168 0.27419,1.21202 0.27417,-0.99163 0.27419,1.73537 0.27418,-1.73537 0.36412,0.96526 0.27418,-1.07425 0.27418,1.12937 0.27418,-1.18448 0.27417,1.11559 0.27419,-1.3084 0.27418,1.01918 0.27417,-1.32219 0.27419,1.8318 0.27417,-2.79589 0.27418,3.45697 0.27418,-1.818 0.27419,1.07427 0.27419,-1.94196 0.27417,2.58928 0.27418,-1.03296 0.27418,1.03296 0.27418,-1.45992 0.27418,0.79882 0.27418,-2.09345 0.27418,2.67192 0.27418,-1.40484 0.27418,1.26712 0.27419,-2.47913 0.27417,1.58388 0.27419,-0.6611 0.27417,1.01918 0.27418,-1.88686 0.27419,1.98328 0.27417,-1.30842 0.27418,2.03838 0.27418,-2.56172 0.27418,1.66649 0.27419,-1.61141 0.27417,2.01082 0.27418,-1.74914 0.27418,1.59765 0.27419,-2.13477 0.27417,1.84554 0.27419,-1.25333 0.27418,1.28088 0.27417,-0.8539 0.27419,0.8539 0.27417,-1.74915 0.27418,2.23119 0.27419,-2.18989 0.27417,1.9282 0.27418,-1.83176 0.27418,1.68025 0.27419,-1.8042 0.27418,1.8042 0.27418,-1.25331 0.27418,1.29464 0.27418,-1.17069 0.27418,1.34975 0.27418,-2.10723 0.27418,1.95572 0.27418,-1.54256 0.27417,2.23121 0.27419,-2.72703 0.27418,2.18989 0.27418,-1.76293 0.27419,1.4737 0.27417,-1.76292 0.27418,2.89227 0.27419,-2.46534 0.27417,2.18064 0.27418,-2.68305 0.27418,2.08414 0.27418,-2.00622 0.27417,1.74327 0.27419,-1.74571 0.27418,2.31382 0.27418,-1.73537 0.27419,1.515 0.27417,-1.43237 0.27419,2.34136 0.27418,-2.83717 0.27417,2.86474 0.27419,-3.04379 0.27417,1.32475 0.27418,-1.28342 0.27419,2.56174 0.27417,-1.99706 0.27418,1.39104 0.27418,-1.84554 0.27419,2.64438 0.27418,-1.65274 0.27418,0.79883 0.27418,-2.68572 0.27417,2.64438 0.27419,-1.36351 0.27418,2.14856 0.27418,-2.24498 0.27418,1.55632 0.27417,-1.40481 0.27419,2.06593 0.27417,-1.95576 0.27418,1.21202 0.2742,-2.0824 0.27417,2.82614 0.27418,-1.73537 0.27418,0.92275 0.27418,-1.07425 0.27418,1.12936 0.27418,-1.18448 0.27418,1.11559 0.27417,-1.3084 0.27419,1.01919 0.27418,-1.3222 0.27417,1.83181 0.2742,-1.47142 0.27417,2.13249 0.27419,-1.818 0.27418,1.07427 0.27417,-1.94196 0.27419,2.58929 0.27417,-1.03296 0.27418,1.03296 0.27419,-1.45992 0.27417,0.79883 0.27418,-2.09345 0.27418,2.67192 0.27418,-1.40484 0.27417,1.26712 0.2742,-2.47913 0.27418,1.58388 0.27417,-0.6611 0.27419,1.01918 0.27417,-1.88686 0.27418,1.98328 0.27419,-1.30843 0.27417,2.03839 0.27419,-2.56174 0.27417,1.66651 0.27418,-1.61142 0.27418,2.01082 0.27419,-1.74915 0.27418,1.59766 0.27418,-2.13477 0.27418,1.84554 0.27418,-1.25333 0.27418,1.28087 0.27418,-0.8539 0.27417,0.8539 0.27419,-1.74915 0.27418,2.23119 0.27417,-2.18988 0.17239,1.54891"
       style="fill:none;stroke:#000000;stroke-width:0.169;stroke-linecap:round;stroke-linejoin:round;stroke-miterlimit:4;stroke-dasharray:none;stroke-opacity:1"
       id="path866" /><rect
       style="fill:#f9f9f9;fill-opacity:1;stroke:none;stroke-width:0.847838;stroke-linecap:round;stroke-dasharray:none;stroke-dashoffset:0;stroke-opacity:0.316178;stop-color:#000000"
       id="rect7654"
       width="179.21036"
       height="77.896843"
       x="15.394821"
       y="19.857754"
       inkscape:export-filename="../335f2a7a/leq.png"
       inkscape:export-xdpi="200.34"
       inkscape:export-ydpi="200.34" /><rect
       style="fill:#f9b000;fill-opacity:0.321961;stroke:none;stroke-width:0.138913;stroke-linecap:round;stroke-dasharray:none;stroke-dashoffset:0;stroke-opacity:0.316178;stop-color:#000000"
       id="rect6343"
       width="42.032001"
       height="24.189438"
       x="135.09494"
       y="63.471325" /><path
       inkscape:connector-curvature="0"
       id="path5390"
       style="fill:#f9b000;fill-opacity:0.321961;stroke:none;stroke-width:0.928658;stroke-linecap:square;stroke-linejoin:round;stroke-miterlimit:4;stroke-dasharray:none;stroke-opacity:1"
       d="m 790.25423,287.07716 c -2.09675,-1.38037 -0.59311,-19.02048 -2.65049,-25.87118 -1.69243,4.63493 -0.72638,16.80992 -1.41893,21.36044 -0.30369,-11.87898 0.0212,-6.54944 -0.73263,1.94602 -0.52999,5.31115 -0.0919,-10.92112 -1.06601,-3.67526 0.13847,12.25919 -1.80294,7.80619 -2.19951,-0.7354 -1.53455,22.74933 -3.01206,-19.79499 -4.01534,-10.7272 -0.0332,10.30029 -0.38085,-5.23777 -0.82794,5.94739 -0.339,-8.93612 -1.76862,-7.96772 -1.61158,0.38293 -0.99487,-3.20841 -1.56468,1.34437 -1.63028,11.64786 -0.56065,-0.91016 -0.36,-13.72185 -1.00897,-2.24633 -1.89605,-3.28029 -0.96161,33.04688 -1.94515,14.04825 -1.10861,-9.60048 -0.64718,-8.78078 -1.42304,0.26694 -0.63093,4.80315 -1.20062,-25.71078 -1.5742,-6.69202 -0.76708,-13.28762 -1.52539,11.31875 -1.09354,-1.85982 0.30966,16.72532 -1.6543,-1.1147 -1.80374,-8.45269 -0.73592,3.70238 -0.3667,-9.82573 -1.36127,-5.59986 -0.40383,0.80969 -0.84367,-2.36739 -2.0833,7.33256 1.29631,-6.05323 -2.29473,-14.19103 -2.0974,-2.95436 -0.45073,16.52236 -0.89766,-10.9541 -1.10492,-2.06201 -0.38801,-7.6614 -1.77811,-7.396 -2.06438,0.28521 -1.76584,14.13968 -2.45525,36.79898 -3.45486,42.628 -0.38396,11.29678 -1.18266,-4.09352 -1.13886,-6.97677 0.18031,-3.59055 -0.4902,-29.04301 -1.73252,-16.865 -0.8181,-6.4324 -1.93968,-19.8938 -2.64045,-33.89372 -0.98289,3.03347 0.24651,9.63491 -1.76481,0.14762 -0.0279,-10.72297 -0.71879,4.60097 -1.55812,-5.11898 -0.15976,-19.24797 -0.24562,12.73324 -1.34767,-2.15724 -1.57254,12.31491 -3.09884,-6.32238 -2.59319,-16.68159 -0.28942,10.75557 -0.67236,-17.81969 -0.88432,-2.99766 -0.2685,-11.2331 -1.43392,-4.33277 -1.25038,2.88201 -0.29879,-13.97154 -1.45224,2.9302 -1.27156,8.25893 -2.43141,1.75807 -0.42557,-25.15522 -3.24073,-15.76243 -1.41679,4.66121 -0.37393,32.12779 -2.58883,21.77494 -0.77025,9.59264 -0.45254,-7.72451 -0.85345,3.53233 -0.91744,18.45134 -4.00849,-4.60948 -3.8327,-11.07128 -0.1306,11.94696 -0.8358,-3.87891 -1.01134,-7.87603 -0.82925,8.7858 -1.57211,12.27953 -2.7162,22.44304 -0.61156,13.49023 -0.28035,-5.17575 -1.59367,6.71597 -2.37499,-8.54617 -0.0948,-15.02564 -2.26543,-19.98047 -0.68195,12.31032 -0.58987,-6.85209 -1.19128,0.7642 0.26532,12.03213 -1.11022,7.6828 -0.88705,-0.95188 -0.12834,-13.76326 -0.64094,7.42254 -1.22461,2.35752 -0.59725,-20.36991 -2.70991,18.5967 -2.76331,11.29234 -0.24352,-9.91705 -0.74377,-2.01141 -1.07428,-10.55929 -0.12281,-15.08386 -1.65368,-2.32041 -1.79743,5.30913 -0.48541,-3.09506 -0.8358,4.97564 -0.98702,10.10843 -1.31359,-1.05489 -2.19217,23.37917 -3.09583,33.56757 -1.16504,18.70349 -1.56538,-4.45637 -1.97413,-10.41506 -1.52678,-6.87329 -0.69417,12.20729 -2.701,17.81025 0.24913,14.07726 -1.70155,-1.77872 -1.66685,2.71397 -0.4102,9.80123 -3.08333,-4.08357 -2.77354,-14.6345 -0.40176,-7.62125 -0.0443,-0.91015 -0.92251,-4.78492 -0.0959,8.90823 0.13306,-5.3329 -0.6201,4.64151 -0.36561,2.38658 -0.14209,-15.43492 -1.35407,-5.15162 -0.17411,8.92558 -0.68327,16.40842 -1.4497,2.69312 -0.82459,-20.33262 -1.54022,3.71603 -2.2531,11.89534 -2.10141,-21.12099 -2.46331,28.29013 -3.41745,10.33433 -0.28727,-13.02346 -0.84324,7.82641 -0.80634,-2.14199 -0.31813,11.76553 -2.02198,-10.46216 -1.79841,-13.77741 -1.68055,12.6504 -1.81906,-1.22216 -1.66755,-5.47067 -1.1997,2.23445 -0.79076,6.97223 -1.52266,-0.65441 -1.49955,6.87572 -0.87237,1.98499 -1.47255,4.64795 -0.33801,9.09488 -0.35092,0.97936 -0.71401,2.69805 -0.86236,17.10203 -0.49259,-12.44554 -1.74713,3.46944 -1.12165,-5.93785 -0.002,3.92482 -0.93772,0.35956 -0.84783,-13.63205 -0.43933,7.03912 -0.92543,-5.21755 -0.69908,8.23591 -0.61738,-4.69013 -1.24029,-6.50701 -0.84922,2.66835 -0.77935,1.98047 -0.97187,-4.92518 0.38366,-13.72043 -2.84692,-29.48296 -3.46095,-41.09797 -1.26605,-13.74911 -1.23418,8.78188 -2.1113,-0.0647 0.4811,6.76326 -1.47876,15.7308 -1.26837,3.71746 0.16598,9.50163 -0.9967,-10.02352 -0.9907,1.0797 0.20347,-6.89869 -0.68933,-3.97716 -0.75173,0.79688 -0.3739,-11.26043 -1.25254,20.52162 -1.8311,8.19725 -1.74528,1.53374 -0.84241,-17.70361 -2.40199,-25.96344 -0.30981,2.21826 -0.94448,-2.68588 -1.30203,-7.83908 -1.06916,-13.4643 -1.21232,-23.6774 -2.49699,-36.74447 -1.24572,14.88957 -1.38902,-10.0704 -2.27173,-15.13262 -0.26863,8.06665 -1.78539,-8.39125 -1.54312,2.51017 -2.53659,2.50258 -3.83455,-19.65911 -3.57322,-28.80853 -0.0412,10.73002 -0.78178,-4.67681 -1.13708,-7.89565 -1.95761,-5.63783 -1.30664,-26.52165 -2.54269,-23.23054 0.0599,18.88868 -2.31562,-5.16402 -1.72938,-12.19688 -0.61188,5.43417 -1.20584,1.81235 -2.17207,-12.857667 -0.2218,14.384077 -1.86365,1.893021 -1.89925,-5.34708 -1.55735,6.946372 -0.56974,17.761907 -1.22108,26.137457 -0.76329,-12.143 -2.45274,-3.70101 -1.95447,3.46209 -0.41173,13.84423 -0.83425,-6.12529 -1.84833,0.39186 -0.1925,-11.0441 -0.82414,9.25619 -0.96137,5.47899 -1.36972,7.13017 -0.69162,-7.33015 -1.72013,4.01585 -1.09495,-4.90103 -2.53139,8.53513 -2.13662,14.79619 -0.026,-7.83258 -0.54452,1.36399 -1.0307,3.9114 -0.16301,13.36899 -0.85323,1.07797 -0.97696,-5.17057 -1.27012,14.99971 -1.46184,-30.0319 -2.37481,-11.53256 0.0916,-7.93693 -0.71263,-2.24087 -0.51028,1.81479 -0.36006,14.02821 -1.97749,-1.49203 -1.95619,-7.71905 -0.81625,16.53129 -0.95888,-20.01831 -1.16981,-2.81376 -0.74518,-9.71544 -1.60802,3.80201 -1.68362,13.49953 -0.6616,2.05277 -1.03125,-16.08535 -1.52087,-1.90083 -1.59655,18.44573 -1.33118,-18.16304 -1.83096,-2.67306 -0.93931,10.05506 0.67685,-0.86845 -1.34646,1.43314 0.0377,-6.93296 -0.5392,-10.94533 -0.64426,-1.40708 -0.4685,12.4741 -0.0789,-8.88186 -1.22372,-1.99685 -0.49966,8.34919 -0.89246,35.47732 -2.2709,26.7743 -0.42205,7.63727 -0.79601,10.63053 -1.04923,1.60275 -0.46249,-16.43259 -1.4455,2.11015 -1.5532,7.92935 -0.76148,-3.07334 -1.24692,10.45613 -2.50531,17.5578 -0.14995,11.91643 -1.41707,5.05377 -1.22567,-2.87985 -0.55656,6.65454 -1.65591,-11.24005 -1.89534,-16.23656 -0.0821,-11.20557 -1.02357,-3.73104 -1.16623,2.71339 0.0873,13.63024 -2.2362,25.20908 -1.86592,38.71486 -0.0325,10.63209 -1.22098,-0.20433 -1.64191,0.18406 -0.71935,12.98389 -1.28985,4.63755 -1.50447,-2.80332 -0.92079,9.76758 -0.56434,25.40139 -2.60757,37.37622 -0.52763,-13.24383 -0.86639,25.78823 -1.17985,5.91992 -0.73124,-16.31 -1.23185,11.47562 -1.81799,6.92595 -0.80175,-3.70143 -0.12128,3.50711 -1.08507,-2.63656 -0.77756,-8.90075 -0.38802,4.36206 -1.24685,-0.0941 -0.20733,-3.31631 -1.13756,2.4307 -1.36771,-10.48653 -0.85889,-3.48885 -3.02568,10.29337 -2.36742,19.68788 -2.14472,1.56449 -1.35724,-22.39044 -3.36271,-29.90686 -0.70585,-18.33198 -1.17329,3.44145 -1.51068,10.32065 -1.0072,-6.23244 -1.82906,-8.22615 -1.966,2.80843 -1.59404,23.24127 -1.8538,-18.78311 -3.83755,-9.49298 -0.45955,17.68187 -1.10549,-2.9771 -1.51951,-8.80267 -0.33753,15.09216 -2.34767,-3.41399 -1.87322,-8.83605 -0.16456,6.0074 -2.46555,20.1261 -2.51305,5.20025 -2.04985,4.51486 -2.08062,-7.85722 -2.57289,-16.70504 -1.81414,19.12959 -1.4282,38.4171 -3.76518,57.48823 v 150.36843 l 228.70088,0.22621 z"
       clip-path="url(#p180ac7933c)"
       sodipodi:nodetypes="ccccccccccccccccccccccccccccccccccccccccccccccccccccccccccccccccccccccccccccccccccccccccccccccccccccccccccccccccccccccccccccccccccccc"
       transform="matrix(0.18378426,0,0,0.1809019,-73.183979,13.552472)" /><path
       style="fill:none;stroke:#000000;stroke-width:0.265;stroke-linecap:butt;stroke-linejoin:miter;stroke-dasharray:none;stroke-opacity:1;marker-start:url(#Arrow2);marker-end:url(#Arrow2)"
       d="M 24.971577,30.879101 V 87.660753 H 81.526621"
       id="path810" /><path
       inkscape:connector-curvature="0"
       id="path330"
       style="fill:none;stroke:#05131c;stroke-width:0.926853;stroke-linecap:square;stroke-linejoin:round;stroke-miterlimit:4;stroke-dasharray:none;stroke-opacity:1"
       d="m 534.01349,322.8587 c 1.10601,5.01642 0.96142,-29.46522 1.98508,-7.28625 0.90898,-14.01 2.59198,23.96662 3.37568,8.01664 -0.0429,10.88828 0.6826,19.3413 1.48943,25.18831 -0.007,9.22852 1.36779,-1.66725 1.09164,7.38476 -0.10373,8.37742 1.16724,10.70413 1.12184,1.10292 0.22698,-8.21428 1.44114,-27.08621 2.94803,-24.87692 0.75119,-5.85126 1.54008,-1.34174 1.35564,-11.13853 -0.23997,-7.44346 2.30791,-10.59901 1.89791,-1.43537 0.1889,-7.42004 1.07062,-6.81507 0.76335,0.23082 1.47588,-8.35669 1.79115,-24.3356 2.54183,-28.59861 -0.64002,8.16006 3.00178,11.68413 2.11614,-0.60662 0.28759,-9.37969 0.86134,8.67332 0.83609,-2.43663 -0.1392,-9.0522 1.80587,-10.18652 1.59711,-0.3562 0.0693,-7.52917 3.08974,-31.45204 3.74246,-29.17796 0.67985,9.29382 0.50427,9.52372 1.10381,0.19635 2.33698,-19.07113 1.95104,-38.35864 3.76518,-57.48823 0.49227,8.84782 0.52304,21.2199 2.57289,16.70504 0.0475,14.92585 2.34849,0.80715 2.51305,-5.20025 -0.47445,5.42206 1.53569,23.92821 1.87322,8.83605 0.41402,5.82557 1.05996,26.48454 1.51951,8.80267 1.98375,-9.29013 2.24351,32.73425 3.83755,9.49298 0.13694,-11.03458 0.9588,-9.04087 1.966,-2.80843 0.33739,-6.8792 0.80483,-28.65263 1.51068,-10.32065 2.00547,7.51642 1.21799,31.47135 3.36271,29.90686 -0.65826,-9.39451 1.50853,-23.17673 2.36742,-19.68788 0.23015,12.91723 1.16038,7.17022 1.36771,10.48653 0.85883,4.45616 0.46929,-8.80665 1.24685,0.0941 0.96379,6.14367 0.28332,-1.06487 1.08507,2.63656 0.58614,4.54967 1.08675,-23.23595 1.81799,-6.92595 0.31346,19.86831 0.65222,-19.16375 1.17985,-5.91992 2.04323,-11.97483 1.68678,-27.60864 2.60757,-37.37622 0.21462,7.44087 0.78512,15.78721 1.50447,2.80332 0.42093,-0.38839 1.60941,10.44803 1.64191,-0.18406 -0.37028,-13.50578 1.95325,-25.08462 1.86592,-38.71486 0.14266,-6.44443 1.0841,-13.91896 1.16623,-2.71339 0.23943,4.99651 1.33878,22.8911 1.89534,16.23656 -0.1914,7.93362 1.07572,14.79628 1.22567,2.87985 1.25839,-7.10167 1.74383,-20.63114 2.50531,-17.5578 0.1077,-5.8192 1.09071,-24.36194 1.5532,-7.92935 0.25322,9.02778 0.62718,6.03452 1.04923,-1.60275 1.37844,8.70302 1.77124,-18.42511 2.2709,-26.7743 1.14478,-6.88501 0.75522,14.47095 1.22372,1.99685 0.10506,-9.53825 0.68198,-5.52588 0.64426,1.40708 2.02331,-2.30159 0.40715,8.62192 1.34646,-1.43314 0.49978,-15.48998 0.23441,21.11879 1.83096,2.67306 0.48962,-14.18452 0.85927,3.9536 1.52087,1.90083 0.0756,-9.69752 0.93844,-23.21497 1.68362,-13.49953 0.21093,-17.20455 0.35356,19.34505 1.16981,2.81376 -0.0213,6.22702 1.59613,21.74726 1.95619,7.71905 -0.20235,-4.05566 0.6019,-9.75172 0.51028,-1.81479 0.91297,-18.49934 1.10469,26.53227 2.37481,11.53256 0.12373,6.24854 0.81395,18.53956 0.97696,5.17057 0.48618,-2.54741 1.0047,-11.74398 1.0307,-3.9114 -0.39477,-6.26106 1.04167,-19.69722 2.13662,-14.79619 1.02851,-11.346 0.35041,3.11432 1.72013,-4.01585 0.13723,3.7772 0.76887,-16.52309 0.96137,-5.47899 1.01408,-6.51715 1.4366,13.45237 1.84833,-0.39186 -0.49827,-7.1631 1.19118,-15.60509 1.95447,-3.46209 0.65134,-8.37555 -0.33627,-19.191085 1.22108,-26.137457 0.0356,7.240101 1.67745,19.731157 1.89925,5.34708 0.96623,14.670017 1.56019,18.291837 2.17207,12.857667 -0.58624,7.03286 1.78931,31.08556 1.72938,12.19688 1.23605,-3.29111 0.58508,17.59271 2.54269,23.23054 0.3553,3.21884 1.09589,18.62567 1.13708,7.89565 -0.26133,9.14942 1.03663,31.31111 3.57322,28.80853 -0.24227,-10.90142 1.27449,5.55648 1.54312,-2.51017 0.88271,5.06222 1.02601,30.02219 2.27173,15.13262 1.28467,13.06707 1.42783,23.28017 2.49699,36.74447 0.35755,5.1532 0.99222,10.05734 1.30203,7.83908 1.55958,8.25983 0.65671,27.49718 2.40199,25.96344 0.57856,12.32437 1.4572,-19.45768 1.8311,-8.19725 0.0624,-4.77404 0.9552,-7.69557 0.75173,-0.79688 -0.006,-11.10322 1.15668,8.42193 0.9907,-1.0797 -0.21039,12.01334 1.74947,3.0458 1.26837,-3.71746 0.87712,8.84658 0.84525,-13.68441 2.1113,0.0647 0.61403,11.61501 3.84461,27.37754 3.46095,41.09797 0.19252,6.90565 0.12265,7.59353 0.97187,4.92518 0.62291,1.81688 0.54121,14.74292 1.24029,6.50701 0.4861,12.25667 0.0776,-8.4145 0.92543,5.21755 0.93554,3.56526 -0.18393,-6.29741 0.93772,-0.35956 1.25454,-15.91498 0.88477,13.63259 1.74713,-3.46944 0.36309,-1.71869 0.376,6.39683 0.71401,-2.69805 0.60018,-2.66296 -0.027,2.22777 1.47255,-4.64795 0.7319,7.62664 0.32296,2.88886 1.52266,0.65441 -0.15151,4.24851 -0.013,18.12107 1.66755,5.47067 -0.22357,3.31525 1.48028,25.54294 1.79841,13.77741 -0.0369,9.9684 0.51907,-10.88147 0.80634,2.14199 0.95414,17.9558 1.31604,-31.45532 3.41745,-10.33433 0.71288,-8.17931 1.42851,-32.22796 2.2531,-11.89534 0.76643,13.7153 1.27559,6.23246 1.4497,-2.69312 1.21198,-10.2833 0.98846,7.5382 1.35407,5.15162 0.75316,-9.97441 0.52422,4.26672 0.6201,-4.64151 0.87818,3.87477 0.52075,-2.83633 0.92251,4.78492 -0.30979,10.55093 2.36334,24.43573 2.77354,14.6345 -0.0347,-4.49269 1.91598,11.36329 1.66685,-2.71397 2.00683,-5.60296 1.17422,-24.68354 2.701,-17.81025 0.40875,5.95869 0.80909,29.11855 1.97413,10.41506 0.90366,-10.1884 1.78224,-34.62246 3.09583,-33.56757 0.15122,-5.13279 0.50161,-13.20349 0.98702,-10.10843 0.14375,-7.62954 1.67462,-20.39299 1.79743,-5.30913 0.33051,8.54788 0.83076,0.64224 1.07428,10.55929 0.0534,7.30436 2.16606,-31.66225 2.76331,-11.29234 0.58367,5.06502 1.09627,-16.12078 1.22461,-2.35752 -0.22317,8.63468 1.15237,12.98401 0.88705,0.95188 0.60141,-7.61629 0.50933,11.54612 1.19128,-0.7642 2.17058,4.95483 -0.10956,11.4343 2.26543,19.98047 1.31332,-11.89172 0.98211,6.77426 1.59367,-6.71597 1.14409,-10.16351 1.88695,-13.65724 2.7162,-22.44304 0.17554,3.99712 0.88074,19.82299 1.01134,7.87603 -0.17579,6.4618 2.91526,29.52262 3.8327,11.07128 0.40091,-11.25684 0.0832,6.06031 0.85345,-3.53233 2.2149,10.35285 1.17204,-17.11373 2.58883,-21.77494 2.81516,-9.39279 0.80932,17.5205 3.24073,15.76243 -0.18068,-5.32873 0.97277,-22.23047 1.27156,-8.25893 -0.18354,-7.21478 0.98188,-14.11511 1.25038,-2.88201 0.21196,-14.82203 0.5949,13.75323 0.88432,2.99766 -0.50565,10.35921 1.02065,28.9965 2.59319,16.68159 1.10205,14.89048 1.18791,-17.09073 1.34767,2.15724 0.83933,9.71995 1.5302,-5.60399 1.55812,5.11898 2.01132,9.48729 0.78192,2.88585 1.76481,-0.14762 0.70077,13.99992 1.82235,27.46132 2.64045,33.89372 1.24232,-12.17801 1.91283,13.27445 1.73252,16.865 -0.0438,2.88325 0.7549,18.27355 1.13886,6.97677 0.99961,-5.82902 1.68902,-28.48832 3.45486,-42.628 0.28627,-7.68121 1.67637,-7.94661 2.06438,-0.28521 0.20726,-8.89209 0.65419,18.58437 1.10492,2.06201 -0.19733,-11.23667 3.39371,-3.09887 2.0974,2.95436 1.23963,-9.69995 1.67947,-6.52287 2.0833,-7.33256 0.99457,-4.22587 0.62535,9.30224 1.36127,5.59986 0.14944,7.33799 2.1134,25.17801 1.80374,8.45269 -0.43185,13.17857 0.32646,-11.4278 1.09354,1.85982 0.37358,-19.01876 0.94327,11.49517 1.5742,6.69202 0.77586,-9.04772 0.31443,-9.86742 1.42304,-0.26694 0.98354,18.99863 0.0491,-17.32854 1.94515,-14.04825 0.64897,-11.47552 0.44832,1.33617 1.00897,2.24633 0.0656,-10.30349 0.63541,-14.85627 1.63028,-11.64786 -0.15704,-8.35065 1.27258,-9.31905 1.61158,-0.38293 0.44709,-11.18516 0.7947,4.3529 0.82794,-5.94739 1.00328,-9.06779 2.48079,33.47653 4.01534,10.7272 0.39657,8.54159 2.33798,12.99459 2.19951,0.7354 0.97415,-7.24586 0.53602,8.98641 1.06601,3.67526 0.75385,-8.49546 0.42894,-13.825 0.73263,-1.94602 0.69255,-4.55052 -0.2735,-16.72551 1.41893,-21.36044 2.05738,6.8507 0.55374,24.49081 2.65049,25.87118 0.38249,-4.10446 1.15486,21.83557 2.25252,23.97253 -0.14272,14.85254 1.13419,21.87787 1.60216,35.99884 0.19844,1.14901 1.4791,13.70865 1.35798,3.86837 2.36552,9.93861 -0.40206,34.24683 4.43505,35.87494 2.01954,-4.15548 0.83934,9.76361 1.84846,-2.01561 0.21966,-6.04642 1.63176,-13.14931 1.77872,-2.59966 1.00684,-5.9792 0.1933,-5.88746 1.20255,-2.39972 0.71412,-13.341 1.75215,-26.56073 2.6837,-39.81839 0.68566,5.69373 1.8316,26.35488 3.13686,9.02883 -0.2958,10.69376 1.94357,-9.95186 1.8858,3.95268 1.34348,1.13796 0.70294,-26.20212 1.64654,-8.0218 2.54065,-11.66441 1.18319,-21.23701 3.55403,-35.3685 1.55255,-5.13113 1.14312,2.38835 1.42445,-7.32665 0.40777,-6.76323 0.81725,-15.01075 0.84094,-3.16792 0.24839,2.49248 0.55863,-6.57417 0.52239,2.10449 0.46586,-7.03492 0.50986,0.79777 1.16147,-7.10914 0.11841,6.73945 1.04481,18.73629 1.16289,4.76061 0.10368,-18.82843 1.59892,18.9147 1.90299,2.46582 0.9627,-0.61911 0.21799,8.17996 0.52021,-0.2176 1.01294,12.54187 0.4593,-18.00719 1.79851,1.1328 0.79709,4.57925 0.66844,-2.55441 0.98679,5.88219 0.96476,5.38829 1.28887,-9.48949 1.48313,-5.67563 0.65613,-6.67904 0.80223,-17.09015 2.38185,-4.07834 2.30705,3.30336 1.75192,23.40795 4.35446,26.41556"
       clip-path="url(#p180ac7933c)"
       sodipodi:nodetypes="ccccccccccccccccccccccccccccccccccccccccccccccccccccccccccccccccccccccccccccccccccccccccccccccccccccccccccccccccccccccccccccccccccccccccccccccccccccccccccccccccccccccccc"
       transform="matrix(0.18378426,0,0,0.1809019,-73.183979,13.552472)" /><path
       style="fill:none;stroke:#000000;stroke-width:0.241758;stroke-linecap:round;stroke-linejoin:miter;stroke-dasharray:0.483516, 0.483516;stroke-dashoffset:0;stroke-opacity:1"
       d="M 30.145968,47.53239 V 92.324563"
       id="path5398" /><path
       style="fill:none;stroke:#000000;stroke-width:0.2413;stroke-linecap:round;stroke-linejoin:miter;stroke-dasharray:0.482601, 0.482601;stroke-dashoffset:0;stroke-opacity:1"
       d="m 72.08368,55.601573 v 36.72299"
       id="path5400"
       sodipodi:nodetypes="cc" /><text
       xml:space="preserve"
       transform="matrix(0.26458333,0,0,0.26458333,5.5931724,-54.791625)"
       id="text5454"
       style="font-size:13.3333px;line-height:1.25;font-family:'Open Sans';-inkscape-font-specification:'Open Sans, Normal';white-space:pre;shape-inside:url(#rect5456);display:inline"><tspan
         x="168.38867"
         y="552.72531"
         id="tspan11149">T</tspan></text><path
       style="fill:none;stroke:#000000;stroke-width:0.165;stroke-linecap:butt;stroke-linejoin:miter;stroke-dasharray:none;stroke-opacity:1;marker-start:url(#Arrow2)"
       d="M 31.306347,90.191093 H 48.624849"
       id="path5466"
       sodipodi:nodetypes="cc" /><path
       style="fill:none;stroke:#000000;stroke-width:0.165;stroke-linecap:butt;stroke-linejoin:miter;stroke-dasharray:none;stroke-opacity:1;marker-start:url(#Arrow2)"
       d="M 70.92353,90.191093 H 53.605028"
       id="path5490"
       sodipodi:nodetypes="cc" /><text
       xml:space="preserve"
       transform="matrix(0.26458333,0,0,0.26458333,-9.8150476,-69.956429)"
       id="text5496"
       style="font-size:12px;line-height:1.25;font-family:'Open Sans';-inkscape-font-specification:'Open Sans, Normal';white-space:pre;shape-inside:url(#rect5498);display:inline;fill:#073665;fill-opacity:1"
       x="46.517578"
       y="0"><tspan
         x="188.18359"
         y="551.51218"
         id="tspan11153"><tspan
           style="text-align:center;text-anchor:middle"
           id="tspan11151">Énergie sonore
</tspan></tspan><tspan
         x="226.86719"
         y="566.51218"
         id="tspan11157"><tspan
           style="text-align:center;text-anchor:middle"
           id="tspan11155">=
</tspan></tspan><tspan
         x="173.49121"
         y="581.51218"
         id="tspan11161"><tspan
           style="text-align:center;text-anchor:middle"
           id="tspan11159">surface de la courbe</tspan></tspan></text><text
       xml:space="preserve"
       transform="matrix(0.26458333,0,0,0.26458333,40.376009,-57.43738)"
       id="text6070"
       style="font-size:13.3333px;line-height:1.25;font-family:'Open Sans';-inkscape-font-specification:'Open Sans, Normal';white-space:pre;shape-inside:url(#rect6072);display:inline"><tspan
         x="168.38867"
         y="552.72531"
         id="tspan11165"><tspan
           style="font-style:italic"
           id="tspan11163">t</tspan></tspan></text><text
       xml:space="preserve"
       transform="matrix(0.26458333,0,0,0.26458333,-26.028266,-112.53848)"
       id="text6082"
       style="font-size:13.3333px;line-height:1.25;font-family:'Open Sans';-inkscape-font-specification:'Open Sans, Normal';white-space:pre;shape-inside:url(#rect6084);display:inline"><tspan
         x="168.38867"
         y="552.72531"
         id="tspan11169"><tspan
           style="font-style:italic"
           id="tspan11167">Lp</tspan></tspan></text><path
       style="fill:none;stroke:#000000;stroke-width:0.265;stroke-linecap:butt;stroke-linejoin:miter;stroke-dasharray:none;stroke-opacity:1;marker-start:url(#Arrow2);marker-end:url(#Arrow2)"
       d="m 129.9677,30.879101 v 56.781652 h 56.55505"
       id="path6143" /><path
       style="fill:none;stroke:#000000;stroke-width:0.241758;stroke-linecap:round;stroke-linejoin:miter;stroke-dasharray:0.483516, 0.483516;stroke-dashoffset:0;stroke-opacity:1"
       d="M 135.14209,47.53239 V 92.324563"
       id="path6147" /><path
       style="fill:none;stroke:#000000;stroke-width:0.2413;stroke-linecap:round;stroke-linejoin:miter;stroke-dasharray:0.482601, 0.482601;stroke-dashoffset:0;stroke-opacity:1"
       d="m 177.07981,55.601573 v 36.72299"
       id="path6149"
       sodipodi:nodetypes="cc" /><text
       xml:space="preserve"
       transform="matrix(0.26458333,0,0,0.26458333,110.5893,-54.791625)"
       id="text6153"
       style="font-size:13.3333px;line-height:1.25;font-family:'Open Sans';-inkscape-font-specification:'Open Sans, Normal';white-space:pre;shape-inside:url(#rect6171);display:inline"><tspan
         x="168.38867"
         y="552.72531"
         id="tspan11171">T</tspan></text><path
       style="fill:none;stroke:#000000;stroke-width:0.165;stroke-linecap:butt;stroke-linejoin:miter;stroke-dasharray:none;stroke-opacity:1;marker-start:url(#Arrow2)"
       d="m 136.30247,90.191093 h 17.3185"
       id="path6155"
       sodipodi:nodetypes="cc" /><path
       style="fill:none;stroke:#000000;stroke-width:0.165;stroke-linecap:butt;stroke-linejoin:miter;stroke-dasharray:none;stroke-opacity:1;marker-start:url(#Arrow2)"
       d="M 175.91966,90.191093 H 158.60115"
       id="path6157"
       sodipodi:nodetypes="cc" /><text
       xml:space="preserve"
       transform="matrix(0.26458333,0,0,0.26458333,91.716678,-70.240908)"
       id="text6161"
       style="font-size:12px;line-height:1.25;font-family:'Open Sans';-inkscape-font-specification:'Open Sans, Normal';white-space:pre;shape-inside:url(#rect6173);display:inline;fill:#073665;fill-opacity:1"
       x="46.517578"
       y="0"><tspan
         x="181.70996"
         y="551.51218"
         id="tspan11175"><tspan
           style="text-align:center;text-anchor:middle"
           id="tspan11173">Même énergie sonore
</tspan></tspan><tspan
         x="239.67676"
         y="566.51218"
         id="tspan11179"><tspan
           style="text-align:center;text-anchor:middle"
           id="tspan11177">=
</tspan></tspan><tspan
         x="186.30078"
         y="581.51218"
         id="tspan11183"><tspan
           style="text-align:center;text-anchor:middle"
           id="tspan11181">surface de la courbe</tspan></tspan></text><text
       xml:space="preserve"
       transform="matrix(0.26458333,0,0,0.26458333,145.37213,-57.43738)"
       id="text6165"
       style="font-size:13.3333px;line-height:1.25;font-family:'Open Sans';-inkscape-font-specification:'Open Sans, Normal';white-space:pre;shape-inside:url(#rect6175);display:inline"><tspan
         x="168.38867"
         y="552.72531"
         id="tspan11187"><tspan
           style="font-style:italic"
           id="tspan11185">t</tspan></tspan></text><text
       xml:space="preserve"
       transform="matrix(0.26458333,0,0,0.26458333,78.967848,-112.53848)"
       id="text6169"
       style="font-size:13.3333px;line-height:1.25;font-family:'Open Sans';-inkscape-font-specification:'Open Sans, Normal';white-space:pre;shape-inside:url(#rect6177);display:inline"><tspan
         x="168.38867"
         y="552.72531"
         id="tspan11191"><tspan
           style="font-style:italic"
           id="tspan11189">Lp</tspan></tspan></text><text
       xml:space="preserve"
       transform="matrix(0.26458333,0,0,0.26458333,-18.399795,-119.73747)"
       id="text6203"
       style="font-size:12px;line-height:1.25;font-family:'Open Sans';-inkscape-font-specification:'Open Sans, Normal';white-space:pre;shape-inside:url(#rect6205);display:inline;fill:#073665;fill-opacity:1"
       x="46.517578"
       y="0"><tspan
         x="186.33496"
         y="551.51218"
         id="tspan11195"><tspan
           style="font-weight:bold;text-align:center;text-anchor:middle"
           id="tspan11193">Niveau de bruit fluctuant</tspan></tspan></text><text
       xml:space="preserve"
       transform="matrix(0.26458333,0,0,0.26458333,86.596318,-119.73747)"
       id="text6273"
       style="font-size:12px;line-height:1.25;font-family:'Open Sans';-inkscape-font-specification:'Open Sans, Normal';white-space:pre;shape-inside:url(#rect6275);display:inline;fill:#073665;fill-opacity:1"
       x="46.517578"
       y="0"><tspan
         x="182.15723"
         y="551.51218"
         id="tspan11199"><tspan
           style="font-weight:bold;text-align:center;text-anchor:middle"
           id="tspan11197">Niveau de bruit équivalent</tspan></tspan></text><text
       xml:space="preserve"
       transform="matrix(0.26458333,0,0,0.26458333,135.08317,-81.497955)"
       id="text6543"
       style="font-size:13.3333px;line-height:1.25;font-family:'Open Sans';-inkscape-font-specification:'Open Sans, Normal';white-space:pre;shape-inside:url(#rect6545);display:inline"><tspan
         x="168.38867"
         y="552.72531"
         id="tspan11203"><tspan
           style="font-style:italic"
           id="tspan11201">Leq</tspan></tspan></text><text
       xml:space="preserve"
       transform="matrix(0.26458333,0,0,0.26458333,42.954426,-90.387038)"
       id="text6555"
       style="font-size:12px;line-height:1.25;font-family:'Open Sans';-inkscape-font-specification:'Open Sans, Normal';white-space:pre;shape-inside:url(#rect6557);display:inline;fill:#073665;fill-opacity:1"
       x="46.517578"
       y="0"><tspan
         x="198.35449"
         y="551.51218"
         id="tspan11207"><tspan
           style="font-weight:bold;text-align:center;text-anchor:middle"
           id="tspan11205">Moyenne </tspan></tspan><tspan
         x="189.70312"
         y="566.51218"
         id="tspan11211"><tspan
           style="font-weight:bold;text-align:center;text-anchor:middle"
           id="tspan11209">énergétique</tspan></tspan></text><text
       xml:space="preserve"
       transform="matrix(0.19704312,0,0,0.19704312,58.698402,-14.854818)"
       id="text6722"
       style="font-size:8px;line-height:1.25;font-family:'Open Sans';-inkscape-font-specification:'Open Sans, Normal';white-space:pre;shape-inside:url(#rect6724);display:inline;fill:#ff0037;fill-opacity:1"
       x="46.517578"
       y="0"><tspan
         x="179.7207"
         y="547.8727"
         id="tspan11215"><tspan
           style="font-style:italic;text-align:center;text-anchor:middle;fill:#1a1a1a"
           id="tspan11213">Illustration adaptée d'un </tspan></tspan><tspan
         x="170.28906"
         y="557.8727"
         id="tspan11219"><tspan
           style="font-style:italic;text-align:center;text-anchor:middle;fill:#1a1a1a"
           id="tspan11217">schéma produit par BruitParif</tspan></tspan></text><path
       style="fill:#073665;fill-opacity:1;stroke:none;stroke-width:0.118982px;stroke-linecap:butt;stroke-linejoin:miter;stroke-opacity:1"
       d="m 111.7953,66.846253 -5.33738,-2.12412 v 1.06206 H 93.772916 v 2.12412 h 12.685004 v 1.06206 z"
       id="path6910"
       sodipodi:nodetypes="cccccccc" /><path
       style="fill:none;stroke:#000000;stroke-width:0.169;stroke-linecap:butt;stroke-linejoin:miter;stroke-dasharray:none;stroke-opacity:1"
       d="m 135.09494,63.471323 h 42.03199"
       id="path8642" /><text
       xml:space="preserve"
       transform="matrix(0.26458333,0,0,0.26458333,37.1827,-72.836939)"
       id="text9384"
       style="font-size:13.3333px;line-height:1.25;font-family:'Open Sans';-inkscape-font-specification:'Open Sans, Normal';white-space:pre;shape-inside:url(#rect9386);display:inline"><tspan
         x="168.38867"
         y="552.72531"
         id="tspan11223"><tspan
           style="font-style:italic"
           id="tspan11221">I(t)</tspan></tspan></text><path
       style="fill:none;stroke:#000000;stroke-width:0.265;stroke-linecap:butt;stroke-linejoin:miter;stroke-dasharray:none;stroke-opacity:1;marker-start:url(#Arrow2);marker-end:url(#Arrow2)"
       d="m 24.971577,124.39921 v 56.78165 h 56.555044"
       id="path12831" /><path
       inkscape:connector-curvature="0"
       id="path12833"
       style="fill:none;stroke:#05131c;stroke-width:0.926853;stroke-linecap:square;stroke-linejoin:round;stroke-miterlimit:4;stroke-dasharray:none;stroke-opacity:1"
       d="m 561.97953,259.06541 c 2.33698,-19.07113 1.95104,-38.35864 3.76518,-57.48823 0.49227,8.84782 0.52304,21.2199 2.57289,16.70504 0.0475,14.92585 2.34849,0.80715 2.51305,-5.20025 -0.47445,5.42206 1.53569,23.92821 1.87322,8.83605 0.41402,5.82557 1.05996,26.48454 1.51951,8.80267 1.98375,-9.29013 2.24351,32.73425 3.83755,9.49298 0.13694,-11.03458 0.9588,-9.04087 1.966,-2.80843 0.33739,-6.8792 0.80483,-28.65263 1.51068,-10.32065 2.00547,7.51642 1.21799,31.47135 3.36271,29.90686 -0.65826,-9.39451 1.50853,-23.17673 2.36742,-19.68788 0.23015,12.91723 1.16038,7.17022 1.36771,10.48653 0.85883,4.45616 0.46929,-8.80665 1.24685,0.0941 0.96379,6.14367 0.28332,-1.06487 1.08507,2.63656 0.58614,4.54967 1.08675,-23.23595 1.81799,-6.92595 0.31346,19.86831 0.65222,-19.16375 1.17985,-5.91992 2.04323,-11.97483 1.68678,-27.60864 2.60757,-37.37622 0.21462,7.44087 0.78512,15.78721 1.50447,2.80332 0.42093,-0.38839 1.60941,10.44803 1.64191,-0.18406 -0.37028,-13.50578 1.95325,-25.08462 1.86592,-38.71486 0.14266,-6.44443 1.0841,-13.91896 1.16623,-2.71339 0.23943,4.99651 1.33878,22.8911 1.89534,16.23656 -0.1914,7.93362 1.07572,14.79628 1.22567,2.87985 1.25839,-7.10167 1.74383,-20.63114 2.50531,-17.5578 0.1077,-5.8192 1.09071,-24.36194 1.5532,-7.92935 0.25322,9.02778 0.62718,6.03452 1.04923,-1.60275 1.37844,8.70302 1.77124,-18.42511 2.2709,-26.7743 1.14478,-6.88501 0.75522,14.47095 1.22372,1.99685 0.10506,-9.53825 0.68198,-5.52588 0.64426,1.40708 2.02331,-2.30159 0.40715,8.62192 1.34646,-1.43314 0.49978,-15.48998 0.23441,21.11879 1.83096,2.67306 0.48962,-14.18452 0.85927,3.9536 1.52087,1.90083 0.0756,-9.69752 0.93844,-23.21497 1.68362,-13.49953 0.21093,-17.20455 0.35356,19.34505 1.16981,2.81376 -0.0213,6.22702 1.59613,21.74726 1.95619,7.71905 -0.20235,-4.05566 0.6019,-9.75172 0.51028,-1.81479 0.91297,-18.49934 1.10469,26.53227 2.37481,11.53256 0.12373,6.24854 0.81395,18.53956 0.97696,5.17057 0.48618,-2.54741 1.0047,-11.74398 1.0307,-3.9114 -0.39477,-6.26106 1.04167,-19.69722 2.13662,-14.79619 1.02851,-11.346 0.35041,3.11432 1.72013,-4.01585 0.13723,3.7772 0.76887,-16.52309 0.96137,-5.47899 1.01408,-6.51715 1.4366,13.45237 1.84833,-0.39186 -0.49827,-7.1631 1.19118,-15.60509 1.95447,-3.46209 0.65134,-8.37555 -0.33627,-19.191085 1.22108,-26.137457 0.0356,7.240101 1.67745,19.731157 1.89925,5.34708 0.96623,14.670017 1.56019,18.291837 2.17207,12.857667 -0.58624,7.03286 1.78931,31.08556 1.72938,12.19688 1.23605,-3.29111 0.58508,17.59271 2.54269,23.23054 0.3553,3.21884 1.09589,18.62567 1.13708,7.89565 -0.26133,9.14942 1.03663,31.31111 3.57322,28.80853 -0.24227,-10.90142 1.27449,5.55648 1.54312,-2.51017 0.88271,5.06222 1.02601,30.02219 2.27173,15.13262 1.28467,13.06707 1.42783,23.28017 2.49699,36.74447 0.35755,5.1532 0.99222,10.05734 1.30203,7.83908 1.55958,8.25983 0.65671,27.49718 2.40199,25.96344 0.57856,12.32437 1.4572,-19.45768 1.8311,-8.19725 0.0624,-4.77404 0.9552,-7.69557 0.75173,-0.79688 -0.006,-11.10322 1.15668,8.42193 0.9907,-1.0797 -0.21039,12.01334 1.74947,3.0458 1.26837,-3.71746 0.87712,8.84658 0.84525,-13.68441 2.1113,0.0647 0.61403,11.61501 3.84461,27.37754 3.46095,41.09797 0.19252,6.90565 0.12265,7.59353 0.97187,4.92518 0.62291,1.81688 0.54121,14.74292 1.24029,6.50701 0.4861,12.25667 0.0776,-8.4145 0.92543,5.21755 0.93554,3.56526 -0.18393,-6.29741 0.93772,-0.35956 1.25454,-15.91498 0.88477,13.63259 1.74713,-3.46944 0.36309,-1.71869 0.376,6.39683 0.71401,-2.69805 0.60018,-2.66296 -0.027,2.22777 1.47255,-4.64795 0.7319,7.62664 0.32296,2.88886 1.52266,0.65441 -0.15151,4.24851 -0.013,18.12107 1.66755,5.47067 -0.22357,3.31525 1.48028,25.54294 1.79841,13.77741 -0.0369,9.9684 0.51907,-10.88147 0.80634,2.14199 0.95414,17.9558 1.31604,-31.45532 3.41745,-10.33433 0.71288,-8.17931 1.42851,-32.22796 2.2531,-11.89534 0.76643,13.7153 1.27559,6.23246 1.4497,-2.69312 1.21198,-10.2833 0.98846,7.5382 1.35407,5.15162 0.75316,-9.97441 0.52422,4.26672 0.6201,-4.64151 0.87818,3.87477 0.52075,-2.83633 0.92251,4.78492 -0.30979,10.55093 2.36334,24.43573 2.77354,14.6345 -0.0347,-4.49269 1.91598,11.36329 1.66685,-2.71397 2.00683,-5.60296 1.17422,-24.68354 2.701,-17.81025 0.40875,5.95869 0.80909,29.11855 1.97413,10.41506 0.90366,-10.1884 1.78224,-34.62246 3.09583,-33.56757 0.15122,-5.13279 0.50161,-13.20349 0.98702,-10.10843 0.14375,-7.62954 1.67462,-20.39299 1.79743,-5.30913 0.33051,8.54788 0.83076,0.64224 1.07428,10.55929 0.0534,7.30436 2.16606,-31.66225 2.76331,-11.29234 0.58367,5.06502 1.09627,-16.12078 1.22461,-2.35752 -0.22317,8.63468 1.15237,12.98401 0.88705,0.95188 0.60141,-7.61629 0.50933,11.54612 1.19128,-0.7642 2.17058,4.95483 -0.10956,11.4343 2.26543,19.98047 1.31332,-11.89172 0.98211,6.77426 1.59367,-6.71597 1.14409,-10.16351 1.88695,-13.65724 2.7162,-22.44304 0.17554,3.99712 0.88074,19.82299 1.01134,7.87603 -0.17579,6.4618 2.91526,29.52262 3.8327,11.07128 0.40091,-11.25684 0.0832,6.06031 0.85345,-3.53233 2.2149,10.35285 1.17204,-17.11373 2.58883,-21.77494 2.81516,-9.39279 0.80932,17.5205 3.24073,15.76243 -0.18068,-5.32873 0.97277,-22.23047 1.27156,-8.25893 -0.18354,-7.21478 0.98188,-14.11511 1.25038,-2.88201 0.21196,-14.82203 0.5949,13.75323 0.88432,2.99766 -0.50565,10.35921 1.02065,28.9965 2.59319,16.68159 1.10205,14.89048 1.18791,-17.09073 1.34767,2.15724 0.83933,9.71995 1.5302,-5.60399 1.55812,5.11898 2.01132,9.48729 0.78192,2.88585 1.76481,-0.14762 0.70077,13.99992 1.82235,27.46132 2.64045,33.89372 1.24232,-12.17801 1.91283,13.27445 1.73252,16.865 -0.0438,2.88325 0.7549,18.27355 1.13886,6.97677 0.99961,-5.82902 1.68902,-28.48832 3.45486,-42.628 0.28627,-7.68121 1.67637,-7.94661 2.06438,-0.28521 0.20726,-8.89209 0.65419,18.58437 1.10492,2.06201 -0.19733,-11.23667 3.39371,-3.09887 2.0974,2.95436 1.23963,-9.69995 1.67947,-6.52287 2.0833,-7.33256 0.99457,-4.22587 0.62535,9.30224 1.36127,5.59986 0.14944,7.33799 2.1134,25.17801 1.80374,8.45269 -0.43185,13.17857 0.32646,-11.4278 1.09354,1.85982 0.37358,-19.01876 0.94327,11.49517 1.5742,6.69202 0.77586,-9.04772 0.31443,-9.86742 1.42304,-0.26694 0.98354,18.99863 0.0491,-17.32854 1.94515,-14.04825 0.64897,-11.47552 0.44832,1.33617 1.00897,2.24633 0.0656,-10.30349 0.63541,-14.85627 1.63028,-11.64786 -0.15704,-8.35065 1.27258,-9.31905 1.61158,-0.38293 0.44709,-11.18516 0.7947,4.3529 0.82794,-5.94739 1.00328,-9.06779 2.48079,33.47653 4.01534,10.7272 0.39657,8.54159 2.33798,12.99459 2.19951,0.7354 0.97415,-7.24586 0.53602,8.98641 1.06601,3.67526 0.75385,-8.49546 0.42894,-13.825 0.73263,-1.94602 0.69255,-4.55052 -0.2735,-16.72551 1.41893,-21.36044 2.05738,6.8507 0.55374,24.49081 2.65049,25.87118"
       clip-path="url(#p180ac7933c)"
       sodipodi:nodetypes="cccccccccccccccccccccccccccccccccccccccccccccccccccccccccccccccccccccccccccccccccccccccccccccccccccccccccccccccccccccccccccccccccc"
       transform="matrix(0.18378426,0,0,0.1809019,-73.183979,107.07258)" /><path
       style="fill:none;stroke:#000000;stroke-width:0.241758;stroke-linecap:round;stroke-linejoin:miter;stroke-dasharray:0.483516, 0.483516;stroke-dashoffset:0;stroke-opacity:1"
       d="m 30.145968,141.0525 v 44.79217"
       id="path12835" /><path
       style="fill:none;stroke:#000000;stroke-width:0.2413;stroke-linecap:round;stroke-linejoin:miter;stroke-dasharray:0.482601, 0.482601;stroke-dashoffset:0;stroke-opacity:1"
       d="m 72.08368,149.12168 v 36.72299"
       id="path12837"
       sodipodi:nodetypes="cc" /><text
       xml:space="preserve"
       transform="matrix(0.26458333,0,0,0.26458333,5.5931724,38.728483)"
       id="text12841"
       style="font-size:13.3333px;line-height:1.25;font-family:'Open Sans';-inkscape-font-specification:'Open Sans, Normal';white-space:pre;shape-inside:url(#rect12913);display:inline"><tspan
         x="168.38867"
         y="552.72531"
         id="tspan11225">T</tspan></text><path
       style="fill:none;stroke:#000000;stroke-width:0.165;stroke-linecap:butt;stroke-linejoin:miter;stroke-dasharray:none;stroke-opacity:1;marker-start:url(#Arrow2)"
       d="M 31.306347,183.7112 H 48.624849"
       id="path12843"
       sodipodi:nodetypes="cc" /><path
       style="fill:none;stroke:#000000;stroke-width:0.165;stroke-linecap:butt;stroke-linejoin:miter;stroke-dasharray:none;stroke-opacity:1;marker-start:url(#Arrow2)"
       d="M 70.92353,183.7112 H 53.605028"
       id="path12845"
       sodipodi:nodetypes="cc" /><text
       xml:space="preserve"
       transform="matrix(0.26458333,0,0,0.26458333,40.376009,36.082728)"
       id="text12853"
       style="font-size:13.3333px;line-height:1.25;font-family:'Open Sans';-inkscape-font-specification:'Open Sans, Normal';white-space:pre;shape-inside:url(#rect12917);display:inline"><tspan
         x="168.38867"
         y="552.72531"
         id="tspan11229"><tspan
           style="font-style:italic"
           id="tspan11227">t</tspan></tspan></text><text
       xml:space="preserve"
       transform="matrix(0.26458333,0,0,0.26458333,-26.028266,-19.018372)"
       id="text12857"
       style="font-size:13.3333px;line-height:1.25;font-family:'Open Sans';-inkscape-font-specification:'Open Sans, Normal';white-space:pre;shape-inside:url(#rect12919);display:inline"><tspan
         x="168.38867"
         y="552.72531"
         id="tspan11233"><tspan
           style="font-style:italic"
           id="tspan11231">Lp</tspan></tspan></text><path
       style="fill:none;stroke:#000000;stroke-width:0.265;stroke-linecap:butt;stroke-linejoin:miter;stroke-dasharray:none;stroke-opacity:1;marker-start:url(#Arrow2);marker-end:url(#Arrow2)"
       d="m 129.9677,124.39921 v 56.78165 h 56.55505"
       id="path12859" /><path
       style="fill:none;stroke:#000000;stroke-width:0.241;stroke-linecap:round;stroke-linejoin:miter;stroke-dasharray:0.482, 0.482;stroke-dashoffset:0;stroke-opacity:1"
       d="m 135.1154,150.89752 v 34.90362"
       id="path12861" /><path
       style="fill:none;stroke:#000000;stroke-width:0.241;stroke-linecap:round;stroke-linejoin:miter;stroke-dasharray:0.48200098,0.48200098;stroke-dashoffset:0;stroke-opacity:1"
       d="m 177.07966,150.9498 v 34.85134"
       id="path12863"
       sodipodi:nodetypes="cc" /><text
       xml:space="preserve"
       transform="matrix(0.26458333,0,0,0.26458333,110.5893,38.728483)"
       id="text12867"
       style="font-size:13.3333px;line-height:1.25;font-family:'Open Sans';-inkscape-font-specification:'Open Sans, Normal';white-space:pre;shape-inside:url(#rect12921);display:inline"><tspan
         x="168.38867"
         y="552.72531"
         id="tspan11235">T</tspan></text><path
       style="fill:none;stroke:#000000;stroke-width:0.165;stroke-linecap:butt;stroke-linejoin:miter;stroke-dasharray:none;stroke-opacity:1;marker-start:url(#Arrow2)"
       d="m 136.30247,183.7112 h 17.3185"
       id="path12869"
       sodipodi:nodetypes="cc" /><path
       style="fill:none;stroke:#000000;stroke-width:0.165;stroke-linecap:butt;stroke-linejoin:miter;stroke-dasharray:none;stroke-opacity:1;marker-start:url(#Arrow2)"
       d="M 175.91966,183.7112 H 158.60115"
       id="path12871"
       sodipodi:nodetypes="cc" /><text
       xml:space="preserve"
       transform="matrix(0.26458333,0,0,0.26458333,145.37213,36.082728)"
       id="text12879"
       style="font-size:13.3333px;line-height:1.25;font-family:'Open Sans';-inkscape-font-specification:'Open Sans, Normal';white-space:pre;shape-inside:url(#rect12925);display:inline"><tspan
         x="168.38867"
         y="552.72531"
         id="tspan11239"><tspan
           style="font-style:italic"
           id="tspan11237">t</tspan></tspan></text><text
       xml:space="preserve"
       transform="matrix(0.26458333,0,0,0.26458333,78.967848,-19.018372)"
       id="text12883"
       style="font-size:13.3333px;line-height:1.25;font-family:'Open Sans';-inkscape-font-specification:'Open Sans, Normal';white-space:pre;shape-inside:url(#rect12927);display:inline"><tspan
         x="168.38867"
         y="552.72531"
         id="tspan11243"><tspan
           style="font-style:italic"
           id="tspan11241">Lp</tspan></tspan></text><text
       xml:space="preserve"
       transform="matrix(0.26458333,0,0,0.26458333,7.0137341,-26.217362)"
       id="text12887"
       style="font-size:12px;line-height:1.25;font-family:'Open Sans';-inkscape-font-specification:'Open Sans, Normal';white-space:pre;shape-inside:url(#rect12929);display:inline;fill:#073665;fill-opacity:1"
       x="46.517578"
       y="0"><tspan
         x="217.10742"
         y="551.51218"
         id="tspan11247"><tspan
           style="font-weight:bold;text-align:center;text-anchor:middle"
           id="tspan11245">Le masquage de la dynamique des niveaux sonores</tspan></tspan></text><text
       xml:space="preserve"
       transform="matrix(0.26458333,0,0,0.26458333,135.08317,12.022153)"
       id="text12895"
       style="font-size:13.3333px;line-height:1.25;font-family:'Open Sans';-inkscape-font-specification:'Open Sans, Normal';white-space:pre;shape-inside:url(#rect12933);display:inline;fill:#ff0000"><tspan
         x="168.38867"
         y="552.72531"
         id="tspan11251"><tspan
           style="font-style:italic;font-weight:bold"
           id="tspan11249">Leq</tspan></tspan></text><text
       xml:space="preserve"
       transform="matrix(0.26458333,0,0,0.26458333,37.1827,20.683169)"
       id="text12911"
       style="font-size:13.3333px;line-height:1.25;font-family:'Open Sans';-inkscape-font-specification:'Open Sans, Normal';white-space:pre;shape-inside:url(#rect12939);display:inline"><tspan
         x="168.38867"
         y="552.72531"
         id="tspan11255"><tspan
           style="font-style:italic"
           id="tspan11253">I(t)</tspan></tspan></text><path
       style="fill:none;stroke:#ff0000;stroke-width:0.169;stroke-linecap:butt;stroke-linejoin:miter;stroke-dasharray:none;stroke-opacity:1"
       d="m 135.09494,156.99143 h 42.03199"
       id="path12907" /><path
       style="fill:none;stroke:#ff0000;stroke-width:0.169;stroke-linecap:butt;stroke-linejoin:miter;stroke-dasharray:none;stroke-opacity:1"
       d="m 30.098829,156.99143 h 42.03199"
       id="path12955" /><text
       xml:space="preserve"
       transform="matrix(0.26458333,0,0,0.26458333,29.822395,12.022153)"
       id="text12967"
       style="font-size:13.3333px;line-height:1.25;font-family:'Open Sans';-inkscape-font-specification:'Open Sans, Normal';white-space:pre;shape-inside:url(#rect12969);display:inline;fill:#ff0000"><tspan
         x="168.38867"
         y="552.72531"
         id="tspan11259"><tspan
           style="font-style:italic;font-weight:bold"
           id="tspan11257">Leq</tspan></tspan></text><g
       id="g27699"
       transform="translate(3.353858,-44.007382)"><text
         xml:space="preserve"
         transform="matrix(0.26458333,0,0,0.26458333,43.112259,43.92294)"
         id="text12899"
         style="font-size:12px;line-height:1.25;font-family:'Open Sans';-inkscape-font-specification:'Open Sans, Normal';white-space:pre;shape-inside:url(#rect12935);display:inline;fill:#073665;fill-opacity:1"
         x="46.517578"
         y="0"><tspan
           x="188.7041"
           y="551.51218"
           id="tspan11263"><tspan
             style="font-weight:bold;text-align:center;text-anchor:middle"
             id="tspan11261">Dynamiques </tspan></tspan><tspan
           x="170.37598"
           y="566.51218"
           id="tspan11267"><tspan
             style="font-weight:bold;text-align:center;text-anchor:middle"
             id="tspan11265">différentes mais ...</tspan></tspan></text><text
         xml:space="preserve"
         transform="matrix(0.26458333,0,0,0.26458333,43.002188,64.784526)"
         id="text27624"
         style="font-size:12px;line-height:1.25;font-family:'Open Sans';-inkscape-font-specification:'Open Sans, Normal';white-space:pre;shape-inside:url(#rect27626);display:inline;fill:#073665;fill-opacity:1"
         x="46.517578"
         y="0"><tspan
           x="178.69336"
           y="551.51218"
           id="tspan11271"><tspan
             style="font-weight:bold;text-align:center;text-anchor:middle"
             id="tspan11269">... même niveau </tspan></tspan><tspan
           x="194.03906"
           y="566.51218"
           id="tspan11275"><tspan
             style="font-weight:bold;text-align:center;text-anchor:middle"
             id="tspan11273">équivalent</tspan></tspan></text><g
         id="g27690"
         transform="translate(3.533002)"><path
           style="fill:#073665;fill-opacity:1;stroke:none;stroke-width:0.118982px;stroke-linecap:butt;stroke-linejoin:miter;stroke-opacity:1"
           d="m 111.7953,201.15623 -5.33738,-2.12412 v 1.06206 H 93.772916 v 2.12412 h 12.685004 v 1.06206 z"
           id="path12905"
           sodipodi:nodetypes="cccccccc" /><path
           style="fill:#073665;fill-opacity:1;stroke:none;stroke-width:0.118982px;stroke-linecap:butt;stroke-linejoin:miter;stroke-opacity:1"
           d="m 86.977616,201.15623 5.33738,2.12412 v -1.06206 H 105 v -2.12412 H 92.314996 v -1.06206 z"
           id="path27686"
           sodipodi:nodetypes="cccccccc" /></g></g><rect
       style="fill:#f9f9f9;fill-opacity:1;stroke:none;stroke-width:0.169;stroke-linecap:round;stroke-dasharray:none;stroke-dashoffset:0;stroke-opacity:0.316178;stop-color:#000000"
       id="rect7139"
       width="179.21036"
       height="77.896843"
       x="15.394821"
       y="204.65709"
       inkscape:export-filename="../7dccc9a5/leq_la10_50_90.png"
       inkscape:export-xdpi="200.34"
       inkscape:export-ydpi="200.34" /><text
       xml:space="preserve"
       transform="matrix(0.26458333,0,0,0.26458333,7.0137341,65.061875)"
       id="text7201"
       style="font-size:12px;line-height:1.25;font-family:'Open Sans';-inkscape-font-specification:'Open Sans, Normal';white-space:pre;shape-inside:url(#rect7265);display:inline;fill:#073665;fill-opacity:1"
       x="46.517578"
       y="0"><tspan
         x="316.00098"
         y="551.51218"
         id="tspan11293"><tspan
           style="font-weight:bold;text-align:center;text-anchor:middle"
           id="tspan11277">L</tspan><tspan
           style="font-size:8px"
           id="tspan11279">EQ</tspan><tspan
           style="font-weight:bold;text-align:center;text-anchor:middle"
           id="tspan11281">, L</tspan><tspan
           style="font-size:8px"
           id="tspan11283">A10</tspan><tspan
           style="font-weight:bold;text-align:center;text-anchor:middle"
           id="tspan11285">, L</tspan><tspan
           style="font-size:8px"
           id="tspan11287">A50</tspan><tspan
           style="font-weight:bold;text-align:center;text-anchor:middle"
           id="tspan11289"> et L</tspan><tspan
           style="font-size:8px"
           id="tspan11291">90</tspan></tspan></text><g
       id="g9015"
       transform="translate(52.564466)"><path
         style="fill:none;stroke:#000000;stroke-width:0.265;stroke-linecap:butt;stroke-linejoin:miter;stroke-dasharray:none;stroke-opacity:1;marker-start:url(#Arrow2);marker-end:url(#Arrow2)"
         d="M 24.971577,215.67845 V 272.4601 H 81.526621"
         id="path7143" /><path
         inkscape:connector-curvature="0"
         id="path7145"
         style="fill:none;stroke:#05131c;stroke-width:0.926853;stroke-linecap:square;stroke-linejoin:round;stroke-miterlimit:4;stroke-dasharray:none;stroke-opacity:1"
         d="m 561.97953,259.06541 c 2.33698,-19.07113 1.95104,-38.35864 3.76518,-57.48823 0.49227,8.84782 0.52304,21.2199 2.57289,16.70504 0.0475,14.92585 2.34849,0.80715 2.51305,-5.20025 -0.47445,5.42206 1.53569,23.92821 1.87322,8.83605 0.41402,5.82557 1.05996,26.48454 1.51951,8.80267 1.98375,-9.29013 2.24351,32.73425 3.83755,9.49298 0.13694,-11.03458 0.9588,-9.04087 1.966,-2.80843 0.33739,-6.8792 0.80483,-28.65263 1.51068,-10.32065 2.00547,7.51642 1.21799,31.47135 3.36271,29.90686 -0.65826,-9.39451 1.50853,-23.17673 2.36742,-19.68788 0.23015,12.91723 1.16038,7.17022 1.36771,10.48653 0.85883,4.45616 0.46929,-8.80665 1.24685,0.0941 0.96379,6.14367 0.28332,-1.06487 1.08507,2.63656 0.58614,4.54967 1.08675,-23.23595 1.81799,-6.92595 0.31346,19.86831 0.65222,-19.16375 1.17985,-5.91992 2.04323,-11.97483 1.68678,-27.60864 2.60757,-37.37622 0.21462,7.44087 0.78512,15.78721 1.50447,2.80332 0.42093,-0.38839 1.60941,10.44803 1.64191,-0.18406 -0.37028,-13.50578 1.95325,-25.08462 1.86592,-38.71486 0.14266,-6.44443 1.0841,-13.91896 1.16623,-2.71339 0.23943,4.99651 1.33878,22.8911 1.89534,16.23656 -0.1914,7.93362 1.07572,14.79628 1.22567,2.87985 1.25839,-7.10167 1.74383,-20.63114 2.50531,-17.5578 0.1077,-5.8192 1.09071,-24.36194 1.5532,-7.92935 0.25322,9.02778 0.62718,6.03452 1.04923,-1.60275 1.37844,8.70302 1.77124,-18.42511 2.2709,-26.7743 1.14478,-6.88501 0.75522,14.47095 1.22372,1.99685 0.10506,-9.53825 0.68198,-5.52588 0.64426,1.40708 2.02331,-2.30159 0.40715,8.62192 1.34646,-1.43314 0.49978,-15.48998 0.23441,21.11879 1.83096,2.67306 0.48962,-14.18452 0.85927,3.9536 1.52087,1.90083 0.0756,-9.69752 0.93844,-23.21497 1.68362,-13.49953 0.21093,-17.20455 0.35356,19.34505 1.16981,2.81376 -0.0213,6.22702 1.59613,21.74726 1.95619,7.71905 -0.20235,-4.05566 0.6019,-9.75172 0.51028,-1.81479 0.91297,-18.49934 1.10469,26.53227 2.37481,11.53256 0.12373,6.24854 0.81395,18.53956 0.97696,5.17057 0.48618,-2.54741 1.0047,-11.74398 1.0307,-3.9114 -0.39477,-6.26106 1.04167,-19.69722 2.13662,-14.79619 1.02851,-11.346 0.35041,3.11432 1.72013,-4.01585 0.13723,3.7772 0.76887,-16.52309 0.96137,-5.47899 1.01408,-6.51715 1.4366,13.45237 1.84833,-0.39186 -0.49827,-7.1631 1.19118,-15.60509 1.95447,-3.46209 0.65134,-8.37555 -0.33627,-19.191085 1.22108,-26.137457 0.0356,7.240101 1.67745,19.731157 1.89925,5.34708 0.96623,14.670017 1.56019,18.291837 2.17207,12.857667 -0.58624,7.03286 1.78931,31.08556 1.72938,12.19688 1.23605,-3.29111 0.58508,17.59271 2.54269,23.23054 0.3553,3.21884 1.09589,18.62567 1.13708,7.89565 -0.26133,9.14942 1.03663,31.31111 3.57322,28.80853 -0.24227,-10.90142 1.27449,5.55648 1.54312,-2.51017 0.88271,5.06222 1.02601,30.02219 2.27173,15.13262 1.28467,13.06707 1.42783,23.28017 2.49699,36.74447 0.35755,5.1532 0.99222,10.05734 1.30203,7.83908 1.55958,8.25983 0.65671,27.49718 2.40199,25.96344 0.57856,12.32437 1.4572,-19.45768 1.8311,-8.19725 0.0624,-4.77404 0.9552,-7.69557 0.75173,-0.79688 -0.006,-11.10322 1.15668,8.42193 0.9907,-1.0797 -0.21039,12.01334 1.74947,3.0458 1.26837,-3.71746 0.87712,8.84658 0.84525,-13.68441 2.1113,0.0647 0.61403,11.61501 3.84461,27.37754 3.46095,41.09797 0.19252,6.90565 0.12265,7.59353 0.97187,4.92518 0.62291,1.81688 0.54121,14.74292 1.24029,6.50701 0.4861,12.25667 0.0776,-8.4145 0.92543,5.21755 0.93554,3.56526 -0.18393,-6.29741 0.93772,-0.35956 1.25454,-15.91498 0.88477,13.63259 1.74713,-3.46944 0.36309,-1.71869 0.376,6.39683 0.71401,-2.69805 0.60018,-2.66296 -0.027,2.22777 1.47255,-4.64795 0.7319,7.62664 0.32296,2.88886 1.52266,0.65441 -0.15151,4.24851 -0.013,18.12107 1.66755,5.47067 -0.22357,3.31525 1.48028,25.54294 1.79841,13.77741 -0.0369,9.9684 0.51907,-10.88147 0.80634,2.14199 0.95414,17.9558 1.31604,-31.45532 3.41745,-10.33433 0.71288,-8.17931 1.42851,-32.22796 2.2531,-11.89534 0.76643,13.7153 1.27559,6.23246 1.4497,-2.69312 1.21198,-10.2833 0.98846,7.5382 1.35407,5.15162 0.75316,-9.97441 0.52422,4.26672 0.6201,-4.64151 0.87818,3.87477 0.52075,-2.83633 0.92251,4.78492 -0.30979,10.55093 2.36334,24.43573 2.77354,14.6345 -0.0347,-4.49269 1.91598,11.36329 1.66685,-2.71397 2.00683,-5.60296 1.17422,-24.68354 2.701,-17.81025 0.40875,5.95869 0.80909,29.11855 1.97413,10.41506 0.90366,-10.1884 1.78224,-34.62246 3.09583,-33.56757 0.15122,-5.13279 0.50161,-13.20349 0.98702,-10.10843 0.14375,-7.62954 1.67462,-20.39299 1.79743,-5.30913 0.33051,8.54788 0.83076,0.64224 1.07428,10.55929 0.0534,7.30436 2.16606,-31.66225 2.76331,-11.29234 0.58367,5.06502 1.09627,-16.12078 1.22461,-2.35752 -0.22317,8.63468 1.15237,12.98401 0.88705,0.95188 0.60141,-7.61629 0.50933,11.54612 1.19128,-0.7642 2.17058,4.95483 -0.10956,11.4343 2.26543,19.98047 1.31332,-11.89172 0.98211,6.77426 1.59367,-6.71597 1.14409,-10.16351 1.88695,-13.65724 2.7162,-22.44304 0.17554,3.99712 0.88074,19.82299 1.01134,7.87603 -0.17579,6.4618 2.91526,29.52262 3.8327,11.07128 0.40091,-11.25684 0.0832,6.06031 0.85345,-3.53233 2.2149,10.35285 1.17204,-17.11373 2.58883,-21.77494 2.81516,-9.39279 0.80932,17.5205 3.24073,15.76243 -0.18068,-5.32873 0.97277,-22.23047 1.27156,-8.25893 -0.18354,-7.21478 0.98188,-14.11511 1.25038,-2.88201 0.21196,-14.82203 0.5949,13.75323 0.88432,2.99766 -0.50565,10.35921 1.02065,28.9965 2.59319,16.68159 1.10205,14.89048 1.18791,-17.09073 1.34767,2.15724 0.83933,9.71995 1.5302,-5.60399 1.55812,5.11898 2.01132,9.48729 0.78192,2.88585 1.76481,-0.14762 0.70077,13.99992 1.82235,27.46132 2.64045,33.89372 1.24232,-12.17801 1.91283,13.27445 1.73252,16.865 -0.0438,2.88325 0.7549,18.27355 1.13886,6.97677 0.99961,-5.82902 1.68902,-28.48832 3.45486,-42.628 0.28627,-7.68121 1.67637,-7.94661 2.06438,-0.28521 0.20726,-8.89209 0.65419,18.58437 1.10492,2.06201 -0.19733,-11.23667 3.39371,-3.09887 2.0974,2.95436 1.23963,-9.69995 1.67947,-6.52287 2.0833,-7.33256 0.99457,-4.22587 0.62535,9.30224 1.36127,5.59986 0.14944,7.33799 2.1134,25.17801 1.80374,8.45269 -0.43185,13.17857 0.32646,-11.4278 1.09354,1.85982 0.37358,-19.01876 0.94327,11.49517 1.5742,6.69202 0.77586,-9.04772 0.31443,-9.86742 1.42304,-0.26694 0.98354,18.99863 0.0491,-17.32854 1.94515,-14.04825 0.64897,-11.47552 0.44832,1.33617 1.00897,2.24633 0.0656,-10.30349 0.63541,-14.85627 1.63028,-11.64786 -0.15704,-8.35065 1.27258,-9.31905 1.61158,-0.38293 0.44709,-11.18516 0.7947,4.3529 0.82794,-5.94739 1.00328,-9.06779 2.48079,33.47653 4.01534,10.7272 0.39657,8.54159 2.33798,12.99459 2.19951,0.7354 0.97415,-7.24586 0.53602,8.98641 1.06601,3.67526 0.75385,-8.49546 0.42894,-13.825 0.73263,-1.94602 0.69255,-4.55052 -0.2735,-16.72551 1.41893,-21.36044 2.05738,6.8507 0.55374,24.49081 2.65049,25.87118"
         clip-path="url(#p180ac7933c)"
         sodipodi:nodetypes="cccccccccccccccccccccccccccccccccccccccccccccccccccccccccccccccccccccccccccccccccccccccccccccccccccccccccccccccccccccccccccccccccc"
         transform="matrix(0.18378426,0,0,0.1809019,-73.183979,198.35182)" /><path
         style="fill:none;stroke:#000000;stroke-width:0.241758;stroke-linecap:round;stroke-linejoin:miter;stroke-dasharray:0.483516, 0.483516;stroke-dashoffset:0;stroke-opacity:1"
         d="m 30.145968,224.42747 v 52.69644"
         id="path7147"
         sodipodi:nodetypes="cc" /><path
         style="fill:none;stroke:#000000;stroke-width:0.2413;stroke-linecap:round;stroke-linejoin:miter;stroke-dasharray:0.482601, 0.482601;stroke-dashoffset:0;stroke-opacity:1"
         d="m 72.08368,224.5651 v 52.55881"
         id="path7149"
         sodipodi:nodetypes="cc" /><text
         xml:space="preserve"
         transform="matrix(0.26458333,0,0,0.26458333,5.5931724,130.00772)"
         id="text7153"
         style="font-size:13.3333px;line-height:1.25;font-family:'Open Sans';-inkscape-font-specification:'Open Sans, Normal';white-space:pre;shape-inside:url(#rect7253);display:inline"><tspan
           x="168.38867"
           y="552.72531"
           id="tspan11295">T</tspan></text><path
         style="fill:none;stroke:#000000;stroke-width:0.165;stroke-linecap:butt;stroke-linejoin:miter;stroke-dasharray:none;stroke-opacity:1;marker-start:url(#Arrow2)"
         d="M 31.306347,274.99044 H 48.624849"
         id="path7155"
         sodipodi:nodetypes="cc" /><path
         style="fill:none;stroke:#000000;stroke-width:0.165;stroke-linecap:butt;stroke-linejoin:miter;stroke-dasharray:none;stroke-opacity:1;marker-start:url(#Arrow2)"
         d="M 70.92353,274.99044 H 53.605028"
         id="path7157"
         sodipodi:nodetypes="cc" /><text
         xml:space="preserve"
         transform="matrix(0.26458333,0,0,0.26458333,40.376009,127.36196)"
         id="text7163"
         style="font-size:13.3333px;line-height:1.25;font-family:'Open Sans';-inkscape-font-specification:'Open Sans, Normal';white-space:pre;shape-inside:url(#rect7255);display:inline"><tspan
           x="168.38867"
           y="552.72531"
           id="tspan11299"><tspan
             style="font-style:italic"
             id="tspan11297">t</tspan></tspan></text><text
         xml:space="preserve"
         transform="matrix(0.26458333,0,0,0.26458333,-26.028266,72.260865)"
         id="text7169"
         style="font-size:13.3333px;line-height:1.25;font-family:'Open Sans';-inkscape-font-specification:'Open Sans, Normal';white-space:pre;shape-inside:url(#rect7257);display:inline"><tspan
           x="168.38867"
           y="552.72531"
           id="tspan11303"><tspan
             style="font-style:italic"
             id="tspan11301">Lp</tspan></tspan></text><text
         xml:space="preserve"
         transform="matrix(0.26458333,0,0,0.26458333,37.1827,111.96241)"
         id="text7213"
         style="font-size:13.3333px;line-height:1.25;font-family:'Open Sans';-inkscape-font-specification:'Open Sans, Normal';white-space:pre;shape-inside:url(#rect7269);display:inline"><tspan
           x="168.38867"
           y="552.72531"
           id="tspan11307"><tspan
             style="font-style:italic"
             id="tspan11305">I(t)</tspan></tspan></text><path
         style="fill:none;stroke:#ff0000;stroke-width:0.169;stroke-linecap:butt;stroke-linejoin:miter;stroke-dasharray:none;stroke-opacity:1"
         d="m 30.098829,248.27067 h 42.03199"
         id="path7217" /><text
         xml:space="preserve"
         transform="matrix(0.26458333,0,0,0.26458333,29.822395,103.30139)"
         id="text7223"
         style="font-size:13.3333px;line-height:1.25;font-family:'Open Sans';-inkscape-font-specification:'Open Sans, Normal';white-space:pre;shape-inside:url(#rect7271);display:inline;fill:#ff0000"><tspan
           x="168.38867"
           y="552.72531"
           id="tspan11313"><tspan
             style="font-style:italic;font-weight:bold"
             id="tspan11309">L</tspan><tspan
             style="font-size:8px"
             id="tspan11311">eq</tspan></tspan></text><path
         style="fill:#800080;stroke:#800080;stroke-width:0.169;stroke-linecap:butt;stroke-linejoin:miter;stroke-dasharray:0.676, 0.676;stroke-dashoffset:0;stroke-opacity:1"
         d="m 30.098829,226.04556 h 42.03199"
         id="path7283" /><text
         xml:space="preserve"
         transform="matrix(0.26458333,0,0,0.26458333,29.822395,81.076379)"
         id="text7289"
         style="font-size:13.3333px;line-height:1.25;font-family:'Open Sans';-inkscape-font-specification:'Open Sans, Normal';white-space:pre;shape-inside:url(#rect7291);display:inline;fill:#800080"><tspan
           x="168.38867"
           y="552.72531"
           id="tspan11319"><tspan
             style="font-style:italic;font-weight:bold"
             id="tspan11315">L</tspan><tspan
             style="font-size:8px"
             id="tspan11317">A10</tspan></tspan></text><path
         style="fill:#ff00ff;stroke:#ff00ff;stroke-width:0.169;stroke-linecap:butt;stroke-linejoin:miter;stroke-dasharray:0.676, 0.676;stroke-dashoffset:0;stroke-opacity:1"
         d="m 30.098829,245.09556 h 42.03199"
         id="path8145" /><text
         xml:space="preserve"
         transform="matrix(0.26458333,0,0,0.26458333,29.822395,100.12637)"
         id="text8151"
         style="font-size:13.3333px;line-height:1.25;font-family:'Open Sans';-inkscape-font-specification:'Open Sans, Normal';white-space:pre;shape-inside:url(#rect8153);display:inline;fill:#ff00ff"><tspan
           x="168.38867"
           y="552.72531"
           id="tspan11325"><tspan
             style="font-style:italic;font-weight:bold"
             id="tspan11321">L</tspan><tspan
             style="font-size:8px"
             id="tspan11323">A50</tspan></tspan></text><path
         style="fill:none;stroke:#ff7f2a;stroke-width:0.169;stroke-linecap:butt;stroke-linejoin:miter;stroke-dasharray:0.676, 0.676;stroke-dashoffset:0;stroke-opacity:1"
         d="m 30.098829,251.97483 h 42.03199"
         id="path8161" /><text
         xml:space="preserve"
         transform="matrix(0.26458333,0,0,0.26458333,29.822395,107.00555)"
         id="text8167"
         style="font-size:13.3333px;line-height:1.25;font-family:'Open Sans';-inkscape-font-specification:'Open Sans, Normal';white-space:pre;shape-inside:url(#rect8169);display:inline;fill:#ff7f2a"><tspan
           x="168.38867"
           y="552.72531"
           id="tspan11331"><tspan
             style="font-style:italic;font-weight:bold"
             id="tspan11327">L</tspan><tspan
             style="font-size:8px"
             id="tspan11329">90</tspan></tspan></text></g></g></svg>
