<?xml version="1.0" encoding="UTF-8" standalone="no"?>
<!-- Created with Inkscape (http://www.inkscape.org/) -->

<svg
   width="210mm"
   height="297mm"
   viewBox="0 0 210 297"
   version="1.1"
   id="svg5"
   xml:space="preserve"
   inkscape:version="1.2.2 (732a01da63, 2022-12-09, custom)"
   sodipodi:docname="citoyens_elus_chercheurs.svg"
   xmlns:inkscape="http://www.inkscape.org/namespaces/inkscape"
   xmlns:sodipodi="http://sodipodi.sourceforge.net/DTD/sodipodi-0.dtd"
   xmlns:xlink="http://www.w3.org/1999/xlink"
   xmlns="http://www.w3.org/2000/svg"
   xmlns:svg="http://www.w3.org/2000/svg"><sodipodi:namedview
     id="namedview7"
     pagecolor="#ffffff"
     bordercolor="#666666"
     borderopacity="1.0"
     inkscape:showpageshadow="2"
     inkscape:pageopacity="0.0"
     inkscape:pagecheckerboard="0"
     inkscape:deskcolor="#d1d1d1"
     inkscape:document-units="mm"
     showgrid="false"
     inkscape:zoom="0.78038721"
     inkscape:cx="330.60511"
     inkscape:cy="559.97843"
     inkscape:window-width="1680"
     inkscape:window-height="1013"
     inkscape:window-x="1920"
     inkscape:window-y="0"
     inkscape:window-maximized="1"
     inkscape:current-layer="layer1" /><defs
     id="defs2"><marker
       style="overflow:visible"
       id="Sketch"
       refX="0"
       refY="0"
       orient="auto-start-reverse"
       inkscape:stockid="Sketch"
       markerWidth="7.5655537"
       markerHeight="6.7364779"
       viewBox="0 0 7.5655539 6.7364778"
       inkscape:isstock="true"
       inkscape:collect="always"
       preserveAspectRatio="xMidYMid"><path
         style="fill:none;stroke:context-stroke;stroke-width:0.4;stroke-linecap:round"
         d="m -4.5421538,-3.2452189 3.83900644,2.60235235 0.56348102,0.59255887 L -2.4921466,1.1808717 -4.4106004,2.139946 -4.5795251,2.8245356 -4.703996,3.0734773 -4.3128019,2.6822832 -3.9749524,2.3088707 0.66603196,-0.12720162 0.02589622,-0.32279868 -1.7613224,-0.60366199 -3.580874,-2.0472634 -4.3186004,-2.392437 l -1.2937699,-0.2549423 2.1825172,0.042166 0.6996091,1.0554873 1.4406512,0.1145833 1.20879971,0.91674665 1.53333299,0.47138389 -1.85995289,1.23785256 -2.03832621,0.9224332 -1.5469949,0.9779853"
         id="path22096"
         sodipodi:nodetypes="ccc" /></marker><linearGradient
       inkscape:collect="always"
       id="linearGradient2457"><stop
         style="stop-color:#fa2a96;stop-opacity:1;"
         offset="0"
         id="stop2453" /><stop
         style="stop-color:#fa2a96;stop-opacity:0.67000002;"
         offset="1"
         id="stop2455" /></linearGradient><linearGradient
       inkscape:collect="always"
       id="linearGradient2449"><stop
         style="stop-color:#fa2a96;stop-opacity:1;"
         offset="0"
         id="stop2445" /><stop
         style="stop-color:#fa2a96;stop-opacity:0.67000002;"
         offset="1"
         id="stop2447" /></linearGradient><linearGradient
       inkscape:collect="always"
       id="linearGradient2441"><stop
         style="stop-color:#9538c5;stop-opacity:1;"
         offset="0"
         id="stop2437" /><stop
         style="stop-color:#9538c5;stop-opacity:0.67000002;"
         offset="1"
         id="stop2439" /></linearGradient><linearGradient
       inkscape:collect="always"
       id="linearGradient2433"><stop
         style="stop-color:#9538c5;stop-opacity:1;"
         offset="0"
         id="stop2429" /><stop
         style="stop-color:#9538c5;stop-opacity:0.67000002;"
         offset="1"
         id="stop2431" /></linearGradient><linearGradient
       inkscape:collect="always"
       id="linearGradient2427"><stop
         style="stop-color:#ca2caa;stop-opacity:1;"
         offset="0"
         id="stop2423" /><stop
         style="stop-color:#ca2caa;stop-opacity:0.66740441;"
         offset="1"
         id="stop2425" /></linearGradient><linearGradient
       inkscape:collect="always"
       id="linearGradient2417"><stop
         style="stop-color:#ca2caa;stop-opacity:1;"
         offset="0"
         id="stop2413" /><stop
         style="stop-color:#ca2caa;stop-opacity:0.66666669;"
         offset="1"
         id="stop2415" /></linearGradient><rect
       x="231.72325"
       y="188.42923"
       width="276.97174"
       height="121.16569"
       id="rect417" /><rect
       x="231.72325"
       y="188.42923"
       width="276.97174"
       height="121.16569"
       id="rect475" /><rect
       x="231.72325"
       y="188.42923"
       width="276.97174"
       height="121.16569"
       id="rect481" /><linearGradient
       inkscape:collect="always"
       xlink:href="#linearGradient2417"
       id="linearGradient2419"
       x1="75.18281"
       y1="133.57659"
       x2="99.900554"
       y2="133.57659"
       gradientUnits="userSpaceOnUse" /><linearGradient
       inkscape:collect="always"
       xlink:href="#linearGradient2427"
       id="linearGradient2421"
       x1="69.427449"
       y1="185.48213"
       x2="105.707"
       y2="185.48213"
       gradientUnits="userSpaceOnUse" /><linearGradient
       inkscape:collect="always"
       xlink:href="#linearGradient2433"
       id="linearGradient2435"
       x1="103.05669"
       y1="142.68345"
       x2="121.59975"
       y2="142.68345"
       gradientUnits="userSpaceOnUse" /><linearGradient
       inkscape:collect="always"
       xlink:href="#linearGradient2441"
       id="linearGradient2443"
       x1="104.57768"
       y1="181.75766"
       x2="125.99972"
       y2="181.75766"
       gradientUnits="userSpaceOnUse" /><linearGradient
       inkscape:collect="always"
       xlink:href="#linearGradient2449"
       id="linearGradient2451"
       x1="53.495845"
       y1="142.72191"
       x2="72.053072"
       y2="142.72191"
       gradientUnits="userSpaceOnUse" /><linearGradient
       inkscape:collect="always"
       xlink:href="#linearGradient2457"
       id="linearGradient2459"
       x1="49.117395"
       y1="181.80525"
       x2="70.514963"
       y2="181.80525"
       gradientUnits="userSpaceOnUse" /></defs><g
     inkscape:label="Calque 1"
     inkscape:groupmode="layer"
     id="layer1"><rect
       style="fill:none;fill-opacity:1;stroke-width:0.901441;stroke-linecap:round;stroke-linejoin:round;stop-color:#000000"
       id="rect1814"
       width="135.34087"
       height="135.34087"
       x="19.896791"
       y="90.663612"
       rx="3.1291521"
       ry="3.1194191"
       inkscape:export-filename="../4b53e93c/citoyens_elus_chercheurs.png"
       inkscape:export-xdpi="75.069717"
       inkscape:export-ydpi="75.069717" /><path
       style="fill:url(#linearGradient2421);fill-opacity:1;stroke-width:0.210362"
       d="m 80.859305,219.78528 c -0.784185,-0.1856 -1.61834,-0.88368 -2.052145,-1.71735 -0.207601,-0.39895 -0.531409,-4.38875 -1.135343,-13.98908 -0.464702,-7.38702 -0.899486,-14.01285 -0.966192,-14.72408 l -0.121264,-1.29315 -1.615882,-0.0742 c -1.826274,-0.0839 -2.72638,-0.54816 -3.336675,-1.7211 -0.518933,-0.99735 -2.518318,-28.26453 -2.162127,-29.48669 0.732983,-2.51505 5.242026,-4.62286 11.700317,-5.46946 3.135625,-0.41104 9.624313,-0.41159 12.755923,-8e-4 6.508353,0.85317 10.975603,2.95234 11.711333,5.50316 0.18664,0.64709 0.0251,3.61662 -0.80763,14.85043 -1.155,15.58075 -1.05104,14.96229 -2.66914,15.87881 -0.62694,0.35512 -1.17305,0.47082 -2.234526,0.47343 l -1.404816,0.003 -0.121311,1.1044 c -0.06671,0.60743 -0.506921,7.25284 -0.978214,14.76758 -0.593074,9.45659 -0.942824,13.82829 -1.136002,14.19944 -0.441343,0.84794 -1.261855,1.50215 -2.139428,1.7058 -0.986991,0.22903 -12.312776,0.22023 -13.286878,-0.0103 z"
       id="path248" /><path
       style="fill:url(#linearGradient2419);fill-opacity:1;stroke-width:0.210362"
       d="m 84.421015,145.51602 c -6.277666,-1.64406 -10.310456,-8.05586 -8.98661,-14.28797 0.974818,-4.58905 4.571369,-8.46545 8.857022,-9.54621 3.173417,-0.80027 5.939072,-0.53608 8.724176,0.83339 2.21193,1.08763 4.561096,3.43769 5.579023,5.58117 1.451124,3.05563 1.697474,6.23784 0.716159,9.25086 -2.034574,6.24695 -8.55946,9.82661 -14.88977,8.16876 z"
       id="path361" /><path
       style="fill:url(#linearGradient2435);fill-opacity:1;stroke-width:0.210362"
       d="m 110.16596,151.76312 c -3.70684,-0.96751 -6.50437,-4.04198 -7.01589,-7.71041 -0.70902,-5.08488 2.68995,-9.67186 7.80475,-10.53268 5.76229,-0.96978 11.10618,4.01588 10.61329,9.90186 -0.30096,3.59389 -2.65884,6.74418 -5.98733,7.99945 -1.48731,0.5609 -3.97393,0.71786 -5.41482,0.34178 z"
       id="path359" /><path
       style="fill:url(#linearGradient2451);fill-opacity:1;stroke-width:0.210362"
       d="m 60.437347,151.71358 c -4.960866,-1.33405 -7.927571,-6.39723 -6.641491,-11.33484 0.467612,-1.79526 1.280403,-3.14856 2.655912,-4.42203 6.450285,-5.97182 16.708922,-0.61591 15.503971,8.09443 -0.749464,5.4177 -6.252507,9.07852 -11.518392,7.66244 z"
       id="path357" /><path
       style="fill:url(#linearGradient2443);fill-opacity:1;stroke-width:0.210362"
       d="m 107.13542,207.52468 c -1.50763,-0.54318 -1.51844,-0.58996 -2.06503,-8.93421 l -0.49271,-7.52183 0.6193,-0.52591 c 1.02152,-0.86744 1.87711,-2.07317 2.32987,-3.28328 0.36352,-0.97158 0.58316,-3.27103 1.47006,-15.39031 0.57349,-7.83644 0.98581,-14.6642 0.91629,-15.1728 l -0.12642,-0.92475 3.87093,0.12253 c 4.41197,0.13965 7.41938,0.70316 9.58379,1.79575 1.39811,0.70576 2.5483,1.76982 2.74039,2.53517 0.20097,0.80073 -1.35669,21.42931 -1.66567,22.05889 -0.41924,0.85424 -1.23945,1.32827 -2.52852,1.46132 l -1.1856,0.12236 -0.11571,1.07617 c -0.0636,0.59189 -0.39556,5.5344 -0.73761,10.98335 -0.37175,5.9222 -0.72369,10.13058 -0.87495,10.46256 -0.55524,1.21862 -0.89768,1.29312 -6.18353,1.34535 -3.40295,0.0336 -5.0509,-0.0288 -5.55488,-0.21036 z"
       id="path355" /><path
       style="fill:url(#linearGradient2459);fill-opacity:1;stroke-width:0.210362"
       d="m 57.890995,207.65525 c -0.83274,-0.27435 -1.324403,-0.63515 -1.605038,-1.17783 -0.225084,-0.43528 -0.498524,-3.5233 -1.025138,-11.57735 -0.394999,-6.04106 -0.722098,-10.99416 -0.7269,-11.0069 -0.0048,-0.0127 -0.547461,-0.0788 -1.205921,-0.14672 -1.299032,-0.13407 -2.11948,-0.60544 -2.538052,-1.45818 -0.306936,-0.62529 -1.822322,-20.42572 -1.660494,-21.69645 0.354951,-2.78729 5.931136,-4.75882 13.45959,-4.75882 h 2.710653 l -0.107446,0.78885 c -0.146722,1.07721 1.905944,29.21391 2.198402,30.13436 0.437805,1.37791 1.057164,2.37484 2.091596,3.36664 l 1.032716,0.99016 -0.486988,7.49965 c -0.540385,8.32186 -0.553185,8.3772 -2.059301,8.90493 -0.707118,0.24777 -9.383703,0.36629 -10.077679,0.13766 z"
       id="path353" /><text
       xml:space="preserve"
       transform="matrix(0.36126799,0,0,0.36126799,-62.742185,25.582169)"
       id="text415"
       style="font-size:29.3333px;line-height:1.25;font-family:'Open Sans';-inkscape-font-specification:'Open Sans, Normal';white-space:pre;shape-inside:url(#rect417);display:inline;fill:#ca2caa;fill-opacity:1"
       x="25.911394"
       y="0"><tspan
         x="319.73508"
         y="215.11915"
         id="tspan3086"><tspan
           style="font-family:Dyuthi;-inkscape-font-specification:Dyuthi;text-align:center;text-anchor:middle"
           id="tspan3084">Citoyens</tspan></tspan></text><text
       xml:space="preserve"
       transform="matrix(0.36126799,0,0,0.36126799,-95.652671,38.36842)"
       id="text473"
       style="font-size:29.3333px;line-height:1.25;font-family:'Open Sans';-inkscape-font-specification:'Open Sans, Normal';white-space:pre;shape-inside:url(#rect475);display:inline;fill:#fa2a96;fill-opacity:1"
       x="25.911394"
       y="0"><tspan
         x="347.09898"
         y="215.11915"
         id="tspan3090"><tspan
           style="font-family:Dyuthi;-inkscape-font-specification:Dyuthi;text-align:center;text-anchor:middle"
           id="tspan3088">Élus</tspan></tspan></text><text
       xml:space="preserve"
       transform="matrix(0.36126799,0,0,0.36126799,-12.243055,33.937768)"
       id="text479"
       style="font-size:29.3333px;line-height:1.25;font-family:'Open Sans';-inkscape-font-specification:'Open Sans, Normal';white-space:pre;shape-inside:url(#rect481);display:inline;fill:#9538c5;fill-opacity:1"
       x="25.911394"
       y="0"><tspan
         x="303.3282"
         y="215.11915"
         id="tspan3094"><tspan
           style="font-family:Dyuthi;-inkscape-font-specification:Dyuthi;text-align:center;text-anchor:middle"
           id="tspan3092">Chercheurs</tspan></tspan></text><path
       style="fill:none;stroke:#fa2a96;stroke-width:0.865;stroke-linecap:round;stroke-linejoin:miter;stroke-dasharray:none;stroke-opacity:1;marker-end:url(#Sketch)"
       d="m 48.852004,116.9823 c 3.144223,1.84894 7.902581,7.51501 11.363541,13.55867"
       id="path2515"
       sodipodi:nodetypes="cc" /><path
       style="fill:none;stroke:#9538c5;stroke-width:0.865;stroke-linecap:round;stroke-linejoin:miter;stroke-dasharray:none;stroke-opacity:1;marker-end:url(#Sketch)"
       d="m 124.81206,115.52099 c -0.67027,3.91595 -2.90086,10.15283 -6.33776,15.07984"
       id="path2801"
       sodipodi:nodetypes="cc" /><path
       style="fill:none;stroke:#ca2caa;stroke-width:0.865;stroke-linecap:round;stroke-linejoin:miter;stroke-dasharray:none;stroke-opacity:1;marker-end:url(#Sketch)"
       d="m 76.42009,106.15508 c 2.524333,2.20582 6.495903,7.11334 8.278959,11.91895"
       id="path2883"
       sodipodi:nodetypes="cc" /></g></svg>
