<?xml version="1.0" encoding="UTF-8" standalone="no"?>
<!-- Created with Inkscape (http://www.inkscape.org/) -->

<svg
   width="210mm"
   height="297mm"
   viewBox="0 0 210 297"
   version="1.1"
   id="svg5"
   xml:space="preserve"
   inkscape:version="1.2.2 (732a01da63, 2022-12-09, custom)"
   sodipodi:docname="contact_icon.svg"
   xmlns:inkscape="http://www.inkscape.org/namespaces/inkscape"
   xmlns:sodipodi="http://sodipodi.sourceforge.net/DTD/sodipodi-0.dtd"
   xmlns:xlink="http://www.w3.org/1999/xlink"
   xmlns="http://www.w3.org/2000/svg"
   xmlns:svg="http://www.w3.org/2000/svg"><sodipodi:namedview
     id="namedview7"
     pagecolor="#ffffff"
     bordercolor="#666666"
     borderopacity="1.0"
     inkscape:showpageshadow="2"
     inkscape:pageopacity="0.0"
     inkscape:pagecheckerboard="0"
     inkscape:deskcolor="#d1d1d1"
     inkscape:document-units="mm"
     showgrid="false"
     inkscape:zoom="1.1036342"
     inkscape:cx="258.23775"
     inkscape:cy="594.39987"
     inkscape:window-width="1920"
     inkscape:window-height="1043"
     inkscape:window-x="0"
     inkscape:window-y="87"
     inkscape:window-maximized="1"
     inkscape:current-layer="layer1" /><defs
     id="defs2"><linearGradient
       inkscape:collect="always"
       id="linearGradient4464"><stop
         style="stop-color:#da28d6;stop-opacity:1;"
         offset="0"
         id="stop4460" /><stop
         style="stop-color:#dd57d6;stop-opacity:1;"
         offset="0.69999999"
         id="stop4592" /><stop
         style="stop-color:#ff9ddc;stop-opacity:0;"
         offset="1"
         id="stop4462" /></linearGradient><linearGradient
       inkscape:collect="always"
       xlink:href="#linearGradient4464"
       id="linearGradient4466"
       x1="212.82127"
       y1="175.78052"
       x2="212.82127"
       y2="63.636803"
       gradientUnits="userSpaceOnUse"
       gradientTransform="translate(-161.62175,21.133723)" /><filter
       inkscape:collect="always"
       style="color-interpolation-filters:sRGB"
       id="filter4827"
       x="-0.12363568"
       y="-0.12363458"
       width="1.2472695"
       height="1.2472716"><feGaussianBlur
         inkscape:collect="always"
         stdDeviation="1.2074459"
         id="feGaussianBlur4829" /></filter><filter
       inkscape:collect="always"
       style="color-interpolation-filters:sRGB"
       id="filter4831"
       x="-0.12363568"
       y="-0.12363458"
       width="1.2472695"
       height="1.2472716"><feGaussianBlur
         inkscape:collect="always"
         stdDeviation="1.2074459"
         id="feGaussianBlur4833" /></filter><filter
       inkscape:collect="always"
       style="color-interpolation-filters:sRGB"
       id="filter4835"
       x="-0.12363568"
       y="-0.12363458"
       width="1.2472695"
       height="1.2472716"><feGaussianBlur
         inkscape:collect="always"
         stdDeviation="1.2074459"
         id="feGaussianBlur4837" /></filter></defs><g
     inkscape:label="Calque 1"
     inkscape:groupmode="layer"
     id="layer1"><path
       id="path1059"
       style="fill:url(#linearGradient4466);fill-opacity:1;stroke-width:0.899999;stroke-linecap:round;stroke-linejoin:round;stroke-opacity:0.693067;stop-color:#000000"
       d="m 70.801963,99.032826 78.578717,0.542547 c 8.78041,0.06062 15.84948,7.068867 15.84948,15.849477 v 47.34285 c 0,8.78061 -7.06886,15.84947 -15.84948,15.84947 H 89.848423 c 0,0 -4.70212,10.25477 -9.99667,15.90714 -3.04114,3.24668 -6.4651,2.33098 -8.38008,2.33098 -1.4013,0 -3.54928,-1.89549 -3.36036,-5.82707 0.12662,-2.635 0.23548,-12.41105 0.23548,-12.41105 -10.03032,0 -17.14726,-7.06886 -17.14726,-15.84947 v -47.34285 c 0,-8.78061 10.82202,-16.452648 19.60243,-16.392024 z"
       sodipodi:nodetypes="ssssscsssssss"
       inkscape:export-filename="../a42fc0ab/contact_icon.png"
       inkscape:export-xdpi="200.34"
       inkscape:export-ydpi="200.34" /><path
       id="rect300"
       style="fill:#c212a1;fill-opacity:1;stroke-width:0.899999;stroke-linecap:round;stroke-linejoin:round;stroke-opacity:0.693067;stop-color:#000000"
       d="m 72.340693,99.046206 h 82.331657 c 8.78062,0 15.84948,7.068864 15.84948,15.849474 v 47.34285 c 0,8.78061 -7.06886,15.84947 -15.84948,15.84947 H 95.140093 c 0,0 -6.35076,6.81757 -11.64531,12.46994 -3.04114,3.24668 -4.81646,5.76818 -6.73144,5.76818 -1.4013,0 -3.54928,-1.89549 -3.36036,-5.82707 0.12662,-2.635 0.23548,-12.41105 0.23548,-12.41105 -10.03032,0 -17.14726,-7.06886 -17.14726,-15.84947 v -47.34285 c 0,-8.78061 7.06887,-15.849474 15.84949,-15.849474 z"
       sodipodi:nodetypes="ssssscsssssss" /><g
       id="g2106"
       transform="matrix(0.84698615,0,0,0.84698615,11.379589,22.475952)"><path
         style="fill:#de0eea;fill-opacity:1;stroke:#000000;stroke-width:0.4;stroke-linecap:round;stroke-linejoin:round;stroke-dasharray:none;stroke-opacity:1;filter:url(#filter4835);stop-color:#000000"
         id="path4809"
         sodipodi:type="arc"
         sodipodi:cx="84.528336"
         sodipodi:cy="139.46519"
         sodipodi:rx="12.528477"
         sodipodi:ry="12.528477"
         sodipodi:start="0.034775012"
         sodipodi:end="0.011263077"
         sodipodi:open="true"
         sodipodi:arc-type="arc"
         d="M 97.049238,139.90078 A 12.528477,12.528477 0 0 1 84.16635,151.98844 12.528477,12.528477 0 0 1 72.003178,139.17683 12.528477,12.528477 0 0 1 84.743076,126.93856 12.528477,12.528477 0 0 1 97.056018,139.6063" /><path
         style="fill:#d98ffb;fill-opacity:1;stroke-width:0.899999;stroke-linecap:round;stroke-linejoin:round;stroke-opacity:0.693067;stop-color:#000000"
         id="path1113"
         sodipodi:type="arc"
         sodipodi:cx="84.528336"
         sodipodi:cy="138.93604"
         sodipodi:rx="12.528477"
         sodipodi:ry="12.528477"
         sodipodi:start="0.034775012"
         sodipodi:end="0.011263077"
         sodipodi:open="true"
         sodipodi:arc-type="arc"
         d="M 97.049238,139.37163 A 12.528477,12.528477 0 0 1 84.16635,151.45928 12.528477,12.528477 0 0 1 72.003178,138.64767 12.528477,12.528477 0 0 1 84.743076,126.4094 12.528477,12.528477 0 0 1 97.056018,139.07714" /><path
         style="fill:#ffd8fb;fill-opacity:1;stroke-width:0.899999;stroke-linecap:round;stroke-linejoin:round;stroke-opacity:0.693067;stop-color:#000000"
         id="path1119"
         sodipodi:type="arc"
         sodipodi:cx="85.58667"
         sodipodi:cy="138.40688"
         sodipodi:rx="12.528477"
         sodipodi:ry="12.528477"
         sodipodi:start="0.034775012"
         sodipodi:end="0.011263077"
         sodipodi:open="true"
         sodipodi:arc-type="arc"
         d="M 98.107572,138.84247 A 12.528477,12.528477 0 0 1 85.224685,150.93012 12.528477,12.528477 0 0 1 73.061512,138.11851 12.528477,12.528477 0 0 1 85.801411,125.88024 12.528477,12.528477 0 0 1 98.114352,138.54798" /></g><g
       id="g2101"
       transform="matrix(0.84698615,0,0,0.84698615,17.305383,22.475952)"><path
         style="fill:#de0eea;fill-opacity:1;stroke:#000000;stroke-width:0.4;stroke-linecap:round;stroke-linejoin:round;stroke-dasharray:none;stroke-opacity:1;filter:url(#filter4831);stop-color:#000000"
         id="path4811"
         sodipodi:type="arc"
         sodipodi:cx="112.78575"
         sodipodi:cy="139.46519"
         sodipodi:rx="12.528477"
         sodipodi:ry="12.528477"
         sodipodi:start="0.034775012"
         sodipodi:end="0.011263077"
         sodipodi:open="true"
         sodipodi:arc-type="arc"
         d="m 125.30665,139.90078 a 12.528477,12.528477 0 0 1 -12.88288,12.08766 12.528477,12.528477 0 0 1 -12.16318,-12.81161 12.528477,12.528477 0 0 1 12.7399,-12.23827 12.528477,12.528477 0 0 1 12.31294,12.66774" /><path
         style="fill:#d98ffb;fill-opacity:1;stroke-width:0.899999;stroke-linecap:round;stroke-linejoin:round;stroke-opacity:0.693067;stop-color:#000000"
         id="path1115"
         sodipodi:type="arc"
         sodipodi:cx="112.78575"
         sodipodi:cy="138.93604"
         sodipodi:rx="12.528477"
         sodipodi:ry="12.528477"
         sodipodi:start="0.034775012"
         sodipodi:end="0.011263077"
         sodipodi:open="true"
         sodipodi:arc-type="arc"
         d="m 125.30665,139.37163 a 12.528477,12.528477 0 0 1 -12.88288,12.08765 12.528477,12.528477 0 0 1 -12.16318,-12.81161 12.528477,12.528477 0 0 1 12.7399,-12.23827 12.528477,12.528477 0 0 1 12.31294,12.66774" /><path
         style="fill:#ffd8fb;fill-opacity:1;stroke-width:0.899999;stroke-linecap:round;stroke-linejoin:round;stroke-opacity:0.693067;stop-color:#000000"
         id="path1121"
         sodipodi:type="arc"
         sodipodi:cx="113.8441"
         sodipodi:cy="138.40688"
         sodipodi:rx="12.528477"
         sodipodi:ry="12.528477"
         sodipodi:start="0.034775012"
         sodipodi:end="0.011263077"
         sodipodi:open="true"
         sodipodi:arc-type="arc"
         d="m 126.365,138.84247 a 12.528477,12.528477 0 0 1 -12.88288,12.08765 12.528477,12.528477 0 0 1 -12.16318,-12.81161 12.528477,12.528477 0 0 1 12.7399,-12.23827 12.528477,12.528477 0 0 1 12.31294,12.66774" /></g><g
       id="g2096"
       transform="matrix(0.84698615,0,0,0.84698615,23.231176,22.475952)"
       inkscape:export-filename="../a42fc0ab/contact_icon.png"
       inkscape:export-xdpi="200.34"
       inkscape:export-ydpi="200.34"><path
         style="fill:#de0eea;fill-opacity:1;stroke:#000000;stroke-width:0.4;stroke-linecap:round;stroke-linejoin:round;stroke-dasharray:none;stroke-opacity:1;filter:url(#filter4827);stop-color:#000000"
         id="path4813"
         sodipodi:type="arc"
         sodipodi:cx="141.04317"
         sodipodi:cy="139.46519"
         sodipodi:rx="12.528477"
         sodipodi:ry="12.528477"
         sodipodi:start="0.034775012"
         sodipodi:end="0.011263077"
         sodipodi:open="true"
         sodipodi:arc-type="arc"
         d="m 153.56407,139.90078 a 12.528477,12.528477 0 0 1 -12.88289,12.08766 12.528477,12.528477 0 0 1 -12.16317,-12.81161 12.528477,12.528477 0 0 1 12.7399,-12.23827 12.528477,12.528477 0 0 1 12.31294,12.66774" /><path
         style="fill:#d98ffb;fill-opacity:1;stroke-width:0.899999;stroke-linecap:round;stroke-linejoin:round;stroke-opacity:0.693067;stop-color:#000000"
         id="path1117"
         sodipodi:type="arc"
         sodipodi:cx="141.04317"
         sodipodi:cy="138.93604"
         sodipodi:rx="12.528477"
         sodipodi:ry="12.528477"
         sodipodi:start="0.034775012"
         sodipodi:end="0.011263077"
         sodipodi:open="true"
         sodipodi:arc-type="arc"
         d="m 153.56407,139.37163 a 12.528477,12.528477 0 0 1 -12.88289,12.08765 12.528477,12.528477 0 0 1 -12.16317,-12.81161 12.528477,12.528477 0 0 1 12.7399,-12.23827 12.528477,12.528477 0 0 1 12.31294,12.66774" /><path
         style="fill:#ffd8fb;fill-opacity:1;stroke-width:0.899999;stroke-linecap:round;stroke-linejoin:round;stroke-opacity:0.693067;stop-color:#000000"
         id="path1123"
         sodipodi:type="arc"
         sodipodi:cx="142.10146"
         sodipodi:cy="138.40688"
         sodipodi:rx="12.528477"
         sodipodi:ry="12.528477"
         sodipodi:start="0.034775012"
         sodipodi:end="0.011263077"
         sodipodi:open="true"
         sodipodi:arc-type="arc"
         d="m 154.62236,138.84247 a 12.528477,12.528477 0 0 1 -12.88289,12.08765 12.528477,12.528477 0 0 1 -12.16317,-12.81161 12.528477,12.528477 0 0 1 12.7399,-12.23827 12.528477,12.528477 0 0 1 12.31294,12.66774" /></g></g></svg>
