<?xml version="1.0" encoding="UTF-8" standalone="no"?>
<!-- Created with Inkscape (http://www.inkscape.org/) -->

<svg
   width="297mm"
   height="210mm"
   viewBox="0 0 297 210"
   version="1.1"
   id="svg5"
   xml:space="preserve"
   inkscape:version="1.2.2 (732a01da63, 2022-12-09, custom)"
   sodipodi:docname="dB.svg"
   xmlns:inkscape="http://www.inkscape.org/namespaces/inkscape"
   xmlns:sodipodi="http://sodipodi.sourceforge.net/DTD/sodipodi-0.dtd"
   xmlns:xlink="http://www.w3.org/1999/xlink"
   xmlns="http://www.w3.org/2000/svg"
   xmlns:svg="http://www.w3.org/2000/svg"><sodipodi:namedview
     id="namedview7"
     pagecolor="#ffffff"
     bordercolor="#666666"
     borderopacity="1.0"
     inkscape:showpageshadow="2"
     inkscape:pageopacity="0.0"
     inkscape:pagecheckerboard="0"
     inkscape:deskcolor="#d1d1d1"
     inkscape:document-units="mm"
     showgrid="false"
     inkscape:zoom="0.56819522"
     inkscape:cx="482.22863"
     inkscape:cy="312.39263"
     inkscape:window-width="1878"
     inkscape:window-height="1016"
     inkscape:window-x="42"
     inkscape:window-y="27"
     inkscape:window-maximized="1"
     inkscape:current-layer="layer1" /><defs
     id="defs2"><linearGradient
       inkscape:collect="always"
       id="linearGradient6540"><stop
         style="stop-color:#1e70b7;stop-opacity:0.99340498;"
         offset="0"
         id="stop6536" /><stop
         style="stop-color:#ffffff;stop-opacity:0;"
         offset="1"
         id="stop6538" /></linearGradient><rect
       x="341.64749"
       y="371.49763"
       width="297.44655"
       height="189.77824"
       id="rect6194" /><rect
       x="341.64749"
       y="371.49763"
       width="297.44655"
       height="189.77824"
       id="rect6202" /><rect
       x="341.64749"
       y="371.49763"
       width="297.44655"
       height="189.77824"
       id="rect6258" /><rect
       x="341.64749"
       y="371.49763"
       width="297.44655"
       height="189.77824"
       id="rect6362" /><rect
       x="341.64749"
       y="371.49763"
       width="297.44655"
       height="189.77824"
       id="rect6364" /><rect
       x="341.64749"
       y="371.49763"
       width="297.44655"
       height="189.77824"
       id="rect6366" /><linearGradient
       inkscape:collect="always"
       xlink:href="#linearGradient6540"
       id="linearGradient6457"
       x1="79.595634"
       y1="126.94714"
       x2="79.595634"
       y2="103.54329"
       gradientUnits="userSpaceOnUse"
       gradientTransform="matrix(0.7704966,0,0,0.7704966,-13.587237,-45.636194)" /><linearGradient
       inkscape:collect="always"
       xlink:href="#linearGradient6540"
       id="linearGradient6529"
       x1="68.901512"
       y1="126.83055"
       x2="68.901512"
       y2="120.06544"
       gradientUnits="userSpaceOnUse"
       gradientTransform="matrix(0.7704966,0,0,0.7704966,-13.587237,-45.636194)" /><linearGradient
       inkscape:collect="always"
       xlink:href="#linearGradient6540"
       id="linearGradient6561"
       gradientUnits="userSpaceOnUse"
       gradientTransform="matrix(0.7704966,0,0,0.7704966,-13.587237,-45.636194)"
       x1="79.595634"
       y1="126.94714"
       x2="79.595634"
       y2="103.54329" /><linearGradient
       inkscape:collect="always"
       xlink:href="#linearGradient6540"
       id="linearGradient6563"
       gradientUnits="userSpaceOnUse"
       gradientTransform="matrix(0.7704966,0,0,0.7704966,-13.587237,-45.636194)"
       x1="68.901512"
       y1="126.83055"
       x2="68.901512"
       y2="120.06544" /><linearGradient
       inkscape:collect="always"
       xlink:href="#linearGradient6540"
       id="linearGradient6577"
       gradientUnits="userSpaceOnUse"
       gradientTransform="matrix(0.7704966,0,0,0.7704966,-13.587237,-45.636194)"
       x1="79.595634"
       y1="126.94714"
       x2="79.595634"
       y2="103.54329" /><linearGradient
       inkscape:collect="always"
       xlink:href="#linearGradient6540"
       id="linearGradient6579"
       gradientUnits="userSpaceOnUse"
       gradientTransform="matrix(0.7704966,0,0,0.7704966,-13.587237,-45.636194)"
       x1="68.901512"
       y1="126.83055"
       x2="68.901512"
       y2="120.06544" /><linearGradient
       inkscape:collect="always"
       xlink:href="#linearGradient6540"
       id="linearGradient6593"
       gradientUnits="userSpaceOnUse"
       gradientTransform="matrix(0.7704966,0,0,0.7704966,-13.587237,-45.636194)"
       x1="79.595634"
       y1="126.94714"
       x2="79.595634"
       y2="103.54329" /><linearGradient
       inkscape:collect="always"
       xlink:href="#linearGradient6540"
       id="linearGradient6595"
       gradientUnits="userSpaceOnUse"
       gradientTransform="matrix(0.7704966,0,0,0.7704966,-13.587237,-45.636194)"
       x1="68.901512"
       y1="126.83055"
       x2="68.901512"
       y2="120.06544" /><linearGradient
       inkscape:collect="always"
       xlink:href="#linearGradient6540"
       id="linearGradient6609"
       gradientUnits="userSpaceOnUse"
       gradientTransform="matrix(0.7704966,0,0,0.7704966,-13.587237,-45.636194)"
       x1="79.595634"
       y1="126.94714"
       x2="79.595634"
       y2="103.54329" /><linearGradient
       inkscape:collect="always"
       xlink:href="#linearGradient6540"
       id="linearGradient6611"
       gradientUnits="userSpaceOnUse"
       gradientTransform="matrix(0.7704966,0,0,0.7704966,-13.587237,-45.636194)"
       x1="68.901512"
       y1="126.83055"
       x2="68.901512"
       y2="120.06544" /><rect
       x="341.64749"
       y="371.49763"
       width="297.44655"
       height="189.77824"
       id="rect2095" /><rect
       x="341.64749"
       y="371.49763"
       width="297.44655"
       height="189.77824"
       id="rect2097" /><rect
       x="341.64749"
       y="371.49763"
       width="297.44655"
       height="189.77824"
       id="rect2099" /><linearGradient
       inkscape:collect="always"
       xlink:href="#linearGradient6540"
       id="linearGradient2101"
       gradientUnits="userSpaceOnUse"
       gradientTransform="matrix(0.7704966,0,0,0.7704966,-13.587237,-45.636194)"
       x1="79.595634"
       y1="126.94714"
       x2="79.595634"
       y2="103.54329" /><linearGradient
       inkscape:collect="always"
       xlink:href="#linearGradient6540"
       id="linearGradient2103"
       gradientUnits="userSpaceOnUse"
       gradientTransform="matrix(0.7704966,0,0,0.7704966,-13.587237,-45.636194)"
       x1="68.901512"
       y1="126.83055"
       x2="68.901512"
       y2="120.06544" /><linearGradient
       inkscape:collect="always"
       xlink:href="#linearGradient6540"
       id="linearGradient2105"
       gradientUnits="userSpaceOnUse"
       gradientTransform="matrix(0.7704966,0,0,0.7704966,-13.587237,-45.636194)"
       x1="79.595634"
       y1="126.94714"
       x2="79.595634"
       y2="103.54329" /><linearGradient
       inkscape:collect="always"
       xlink:href="#linearGradient6540"
       id="linearGradient2107"
       gradientUnits="userSpaceOnUse"
       gradientTransform="matrix(0.7704966,0,0,0.7704966,-13.587237,-45.636194)"
       x1="68.901512"
       y1="126.83055"
       x2="68.901512"
       y2="120.06544" /></defs><g
     inkscape:label="Calque 1"
     inkscape:groupmode="layer"
     id="layer1"><rect
       style="fill:#f2f2f2;fill-opacity:0.636007;stroke:none;stroke-width:1.9182;stroke-linecap:round;stroke-linejoin:round;stop-color:#000000"
       id="rect1650"
       width="302.96542"
       height="119.47884"
       x="-0.99456716"
       y="40.112911"
       inkscape:export-filename="../3daaed89/dB.png"
       inkscape:export-xdpi="83.234612"
       inkscape:export-ydpi="83.234612" /><g
       id="g6607"
       transform="translate(129.2106,50.40399)"><path
         class="st0"
         d="M 53.118166,61.166547 42.363689,57.540659 c -0.566025,-0.139452 -1.018846,-0.836744 -1.018846,-1.534028 v -8.088504 c 0,-0.697291 0.452821,-1.394575 1.018846,-1.534028 l 10.754477,-3.62588 c 0.905641,-0.278919 1.698075,0.557825 1.698075,1.534028 v 15.340272 c 0,1.115656 -0.792434,1.81294 -1.698075,1.534028 z"
         id="path6597"
         style="fill:url(#linearGradient6609);fill-opacity:1;stroke:#000000;stroke-width:1.38458;stroke-dasharray:none;stroke-opacity:1" /><path
         d="m 60.372826,58.197831 c -0.415473,0 -0.692455,-0.276986 -0.692455,-0.692461 V 46.426084 c 0,-0.415475 0.276982,-0.692453 0.692455,-0.692453 0.415474,0 0.692456,0.276986 0.692456,0.692453 V 57.50537 c 0,0.415475 -0.276982,0.692461 -0.692456,0.692461 z"
         id="path6599"
         style="stroke-width:1.38491" /><path
         d="m 63.843865,60.967658 c -0.415471,0 -0.692453,-0.276985 -0.692453,-0.692453 V 43.656272 c 0,-0.415475 0.276982,-0.692461 0.692453,-0.692461 0.415475,0 0.692461,0.276986 0.692461,0.692461 v 16.618933 c 0,0.415468 -0.276986,0.692453 -0.692461,0.692453 z"
         id="path6601"
         style="stroke-width:1.38458;stroke-dasharray:none" /><path
         class="st0"
         d="m 40.902356,54.546563 -2.80242,-1.01694 c -0.147495,-0.03914 -0.265492,-0.23467 -0.265492,-0.43023 v -2.268542 c 0,-0.195567 0.117997,-0.391127 0.265492,-0.430238 l 2.80242,-1.01694 c 0.235994,-0.07817 0.442487,0.15645 0.442487,0.430246 v 4.302407 c 0,0.312898 -0.206493,0.508466 -0.442487,0.430237 z"
         id="path6603"
         style="fill:url(#linearGradient6611);fill-opacity:1;stroke:#000000;stroke-width:1.38458;stroke-dasharray:none;stroke-opacity:1" /><path
         d="m 67.314906,64.069185 c -0.415475,0 -0.692453,-0.37242 -0.692453,-0.93103 V 40.79333 c 0,-0.558626 0.276978,-0.931045 0.692453,-0.931045 0.415467,0 0.692453,0.372419 0.692453,0.931045 v 22.344825 c 0,0.55861 -0.276986,0.93103 -0.692453,0.93103 z"
         id="path6605"
         style="stroke-width:1.38458;stroke-dasharray:none" /></g><text
       xml:space="preserve"
       transform="matrix(1.421581,0,0,1.421581,-412.6896,-436.29944)"
       id="text6352"
       style="font-size:13.3333px;line-height:1.25;font-family:'Open Sans';-inkscape-font-specification:'Open Sans, Normal';white-space:pre;shape-inside:url(#rect6362);display:inline"><tspan
         x="341.64844"
         y="383.6296"
         id="tspan5475">x    3</tspan></text><text
       xml:space="preserve"
       transform="matrix(1.421581,0,0,1.421581,-343.72962,-436.31795)"
       id="text6356"
       style="font-size:13.3333px;line-height:1.25;font-family:'Open Sans';-inkscape-font-specification:'Open Sans, Normal';white-space:pre;shape-inside:url(#rect6364);display:inline"><tspan
         x="341.64844"
         y="383.6296"
         id="tspan5477">=</tspan></text><text
       xml:space="preserve"
       transform="matrix(1.421581,0,0,1.421581,-278.30232,-435.88296)"
       id="text6360"
       style="font-size:13.3333px;line-height:1.25;font-family:'Open Sans';-inkscape-font-specification:'Open Sans, Normal';white-space:pre;shape-inside:url(#rect6366);display:inline"><tspan
         x="341.64844"
         y="383.6296"
         id="tspan5479">+ 5 dB</tspan></text><g
       id="g3797"
       transform="translate(0,-2.5173947)"><g
         id="g2153"
         transform="translate(0,-4.7625002)"><g
           id="g6575"
           transform="translate(60.352426,17.701567)"
           inkscape:export-filename="../9d9fdc74/dB.png"
           inkscape:export-xdpi="83.234612"
           inkscape:export-ydpi="83.234612"><path
             class="st0"
             d="M 53.118166,61.166547 42.363689,57.540659 c -0.566025,-0.139452 -1.018846,-0.836744 -1.018846,-1.534028 v -8.088504 c 0,-0.697291 0.452821,-1.394575 1.018846,-1.534028 l 10.754477,-3.62588 c 0.905641,-0.278919 1.698075,0.557825 1.698075,1.534028 v 15.340272 c 0,1.115656 -0.792434,1.81294 -1.698075,1.534028 z"
             id="path6565"
             style="fill:url(#linearGradient6577);fill-opacity:1;stroke:#000000;stroke-width:1.38458;stroke-dasharray:none;stroke-opacity:1" /><path
             d="m 60.372826,58.197831 c -0.415473,0 -0.692455,-0.276986 -0.692455,-0.692461 V 46.426084 c 0,-0.415475 0.276982,-0.692453 0.692455,-0.692453 0.415474,0 0.692456,0.276986 0.692456,0.692453 V 57.50537 c 0,0.415475 -0.276982,0.692461 -0.692456,0.692461 z"
             id="path6567"
             style="stroke-width:1.38491" /><path
             d="m 63.843865,60.967658 c -0.415471,0 -0.692453,-0.276985 -0.692453,-0.692453 V 43.656272 c 0,-0.415475 0.276982,-0.692461 0.692453,-0.692461 0.415475,0 0.692461,0.276986 0.692461,0.692461 v 16.618933 c 0,0.415468 -0.276986,0.692453 -0.692461,0.692453 z"
             id="path6569"
             style="stroke-width:1.38458;stroke-dasharray:none" /><path
             class="st0"
             d="m 40.902356,54.546563 -2.80242,-1.01694 c -0.147495,-0.03914 -0.265492,-0.23467 -0.265492,-0.43023 v -2.268542 c 0,-0.195567 0.117997,-0.391127 0.265492,-0.430238 l 2.80242,-1.01694 c 0.235994,-0.07817 0.442487,0.15645 0.442487,0.430246 v 4.302407 c 0,0.312898 -0.206493,0.508466 -0.442487,0.430237 z"
             id="path6571"
             style="fill:url(#linearGradient6579);fill-opacity:1;stroke:#000000;stroke-width:1.38458;stroke-dasharray:none;stroke-opacity:1" /><path
             d="m 67.314906,64.069185 c -0.415475,0 -0.692453,-0.37242 -0.692453,-0.93103 V 40.79333 c 0,-0.558626 0.276978,-0.931045 0.692453,-0.931045 0.415467,0 0.692453,0.372419 0.692453,0.931045 v 22.344825 c 0,0.55861 -0.276986,0.93103 -0.692453,0.93103 z"
             id="path6573"
             style="stroke-width:1.38458;stroke-dasharray:none" /></g><g
           id="g6591"
           transform="translate(129.2106,17.701567)"><path
             class="st0"
             d="M 53.118166,61.166547 42.363689,57.540659 c -0.566025,-0.139452 -1.018846,-0.836744 -1.018846,-1.534028 v -8.088504 c 0,-0.697291 0.452821,-1.394575 1.018846,-1.534028 l 10.754477,-3.62588 c 0.905641,-0.278919 1.698075,0.557825 1.698075,1.534028 v 15.340272 c 0,1.115656 -0.792434,1.81294 -1.698075,1.534028 z"
             id="path6581"
             style="fill:url(#linearGradient6593);fill-opacity:1;stroke:#000000;stroke-width:1.38458;stroke-dasharray:none;stroke-opacity:1" /><path
             d="m 60.372826,58.197831 c -0.415473,0 -0.692455,-0.276986 -0.692455,-0.692461 V 46.426084 c 0,-0.415475 0.276982,-0.692453 0.692455,-0.692453 0.415474,0 0.692456,0.276986 0.692456,0.692453 V 57.50537 c 0,0.415475 -0.276982,0.692461 -0.692456,0.692461 z"
             id="path6583"
             style="stroke-width:1.38491" /><path
             d="m 63.843865,60.967658 c -0.415471,0 -0.692453,-0.276985 -0.692453,-0.692453 V 43.656272 c 0,-0.415475 0.276982,-0.692461 0.692453,-0.692461 0.415475,0 0.692461,0.276986 0.692461,0.692461 v 16.618933 c 0,0.415468 -0.276986,0.692453 -0.692461,0.692453 z"
             id="path6585"
             style="stroke-width:1.38458;stroke-dasharray:none" /><path
             class="st0"
             d="m 40.902356,54.546563 -2.80242,-1.01694 c -0.147495,-0.03914 -0.265492,-0.23467 -0.265492,-0.43023 v -2.268542 c 0,-0.195567 0.117997,-0.391127 0.265492,-0.430238 l 2.80242,-1.01694 c 0.235994,-0.07817 0.442487,0.15645 0.442487,0.430246 v 4.302407 c 0,0.312898 -0.206493,0.508466 -0.442487,0.430237 z"
             id="path6587"
             style="fill:url(#linearGradient6595);fill-opacity:1;stroke:#000000;stroke-width:1.38458;stroke-dasharray:none;stroke-opacity:1" /><path
             d="m 67.314906,64.069185 c -0.415475,0 -0.692453,-0.37242 -0.692453,-0.93103 V 40.79333 c 0,-0.558626 0.276978,-0.931045 0.692453,-0.931045 0.415467,0 0.692453,0.372419 0.692453,0.931045 v 22.344825 c 0,0.55861 -0.276986,0.93103 -0.692453,0.93103 z"
             id="path6589"
             style="stroke-width:1.38458;stroke-dasharray:none" /></g><g
           id="g6547"
           transform="translate(-8.718616,17.701567)"><path
             class="st0"
             d="M 53.118166,61.166547 42.363689,57.540659 c -0.566025,-0.139452 -1.018846,-0.836744 -1.018846,-1.534028 v -8.088504 c 0,-0.697291 0.452821,-1.394575 1.018846,-1.534028 l 10.754477,-3.62588 c 0.905641,-0.278919 1.698075,0.557825 1.698075,1.534028 v 15.340272 c 0,1.115656 -0.792434,1.81294 -1.698075,1.534028 z"
             id="path2521"
             style="fill:url(#linearGradient6457);fill-opacity:1;stroke:#000000;stroke-width:1.38458;stroke-dasharray:none;stroke-opacity:1" /><path
             d="m 60.372826,58.197831 c -0.415473,0 -0.692455,-0.276986 -0.692455,-0.692461 V 46.426084 c 0,-0.415475 0.276982,-0.692453 0.692455,-0.692453 0.415474,0 0.692456,0.276986 0.692456,0.692453 V 57.50537 c 0,0.415475 -0.276982,0.692461 -0.692456,0.692461 z"
             id="XMLID_3_"
             style="stroke-width:1.38491" /><path
             d="m 63.843865,60.967658 c -0.415471,0 -0.692453,-0.276985 -0.692453,-0.692453 V 43.656272 c 0,-0.415475 0.276982,-0.692461 0.692453,-0.692461 0.415475,0 0.692461,0.276986 0.692461,0.692461 v 16.618933 c 0,0.415468 -0.276986,0.692453 -0.692461,0.692453 z"
             id="XMLID_2_"
             style="stroke-width:1.38458;stroke-dasharray:none" /><path
             class="st0"
             d="m 40.902356,54.546563 -2.80242,-1.01694 c -0.147495,-0.03914 -0.265492,-0.23467 -0.265492,-0.43023 v -2.268542 c 0,-0.195567 0.117997,-0.391127 0.265492,-0.430238 l 2.80242,-1.01694 c 0.235994,-0.07817 0.442487,0.15645 0.442487,0.430246 v 4.302407 c 0,0.312898 -0.206493,0.508466 -0.442487,0.430237 z"
             id="path3201"
             style="fill:url(#linearGradient6529);fill-opacity:1;stroke:#000000;stroke-width:1.38458;stroke-dasharray:none;stroke-opacity:1" /><path
             d="m 67.314906,64.069185 c -0.415475,0 -0.692453,-0.37242 -0.692453,-0.93103 V 40.79333 c 0,-0.558626 0.276978,-0.931045 0.692453,-0.931045 0.415467,0 0.692453,0.372419 0.692453,0.931045 v 22.344825 c 0,0.55861 -0.276986,0.93103 -0.692453,0.93103 z"
             id="path3929"
             style="stroke-width:1.38458;stroke-dasharray:none" /></g><text
           xml:space="preserve"
           transform="matrix(1.421581,0,0,1.421581,-412.6896,-469.00184)"
           id="text6192"
           style="font-size:13.3333px;line-height:1.25;font-family:'Open Sans';-inkscape-font-specification:'Open Sans, Normal';white-space:pre;shape-inside:url(#rect6194);display:inline"><tspan
             x="341.64844"
             y="383.6296"
             id="tspan5481">+</tspan></text><text
           xml:space="preserve"
           transform="matrix(1.421581,0,0,1.421581,-343.72962,-469.02035)"
           id="text6200"
           style="font-size:13.3333px;line-height:1.25;font-family:'Open Sans';-inkscape-font-specification:'Open Sans, Normal';white-space:pre;shape-inside:url(#rect6202);display:inline"><tspan
             x="341.64844"
             y="383.6296"
             id="tspan5483">=</tspan></text><text
           xml:space="preserve"
           transform="matrix(1.421581,0,0,1.421581,-278.30232,-468.58536)"
           id="text6256"
           style="font-size:13.3333px;line-height:1.25;font-family:'Open Sans';-inkscape-font-specification:'Open Sans, Normal';white-space:pre;shape-inside:url(#rect6258);display:inline"><tspan
             x="341.64844"
             y="383.6296"
             id="tspan5485">+ 3 dB</tspan></text></g><g
         id="g6559"
         transform="translate(-8.718616,50.40399)"><path
           class="st0"
           d="M 53.118166,61.166547 42.363689,57.540659 c -0.566025,-0.139452 -1.018846,-0.836744 -1.018846,-1.534028 v -8.088504 c 0,-0.697291 0.452821,-1.394575 1.018846,-1.534028 l 10.754477,-3.62588 c 0.905641,-0.278919 1.698075,0.557825 1.698075,1.534028 v 15.340272 c 0,1.115656 -0.792434,1.81294 -1.698075,1.534028 z"
           id="path6549"
           style="fill:url(#linearGradient6561);fill-opacity:1;stroke:#000000;stroke-width:1.38458;stroke-dasharray:none;stroke-opacity:1" /><path
           d="m 60.372826,58.197831 c -0.415473,0 -0.692455,-0.276986 -0.692455,-0.692461 V 46.426084 c 0,-0.415475 0.276982,-0.692453 0.692455,-0.692453 0.415474,0 0.692456,0.276986 0.692456,0.692453 V 57.50537 c 0,0.415475 -0.276982,0.692461 -0.692456,0.692461 z"
           id="path6551"
           style="stroke-width:1.38491" /><path
           d="m 63.843865,60.967658 c -0.415471,0 -0.692453,-0.276985 -0.692453,-0.692453 V 43.656272 c 0,-0.415475 0.276982,-0.692461 0.692453,-0.692461 0.415475,0 0.692461,0.276986 0.692461,0.692461 v 16.618933 c 0,0.415468 -0.276986,0.692453 -0.692461,0.692453 z"
           id="path6553"
           style="stroke-width:1.38458;stroke-dasharray:none" /><path
           class="st0"
           d="m 40.902356,54.546563 -2.80242,-1.01694 c -0.147495,-0.03914 -0.265492,-0.23467 -0.265492,-0.43023 v -2.268542 c 0,-0.195567 0.117997,-0.391127 0.265492,-0.430238 l 2.80242,-1.01694 c 0.235994,-0.07817 0.442487,0.15645 0.442487,0.430246 v 4.302407 c 0,0.312898 -0.206493,0.508466 -0.442487,0.430237 z"
           id="path6555"
           style="fill:url(#linearGradient6563);fill-opacity:1;stroke:#000000;stroke-width:1.38458;stroke-dasharray:none;stroke-opacity:1" /><path
           d="m 67.314906,64.069185 c -0.415475,0 -0.692453,-0.37242 -0.692453,-0.93103 V 40.79333 c 0,-0.558626 0.276978,-0.931045 0.692453,-0.931045 0.415467,0 0.692453,0.372419 0.692453,0.931045 v 22.344825 c 0,0.55861 -0.276986,0.93103 -0.692453,0.93103 z"
           id="path6557"
           style="stroke-width:1.38458;stroke-dasharray:none" /></g><g
         id="g2127"
         transform="translate(0,-4.7625002)"><g
           id="g2069"
           transform="translate(129.2106,92.631419)"><path
             class="st0"
             d="M 53.118166,61.166547 42.363689,57.540659 c -0.566025,-0.139452 -1.018846,-0.836744 -1.018846,-1.534028 v -8.088504 c 0,-0.697291 0.452821,-1.394575 1.018846,-1.534028 l 10.754477,-3.62588 c 0.905641,-0.278919 1.698075,0.557825 1.698075,1.534028 v 15.340272 c 0,1.115656 -0.792434,1.81294 -1.698075,1.534028 z"
             id="path2059"
             style="fill:url(#linearGradient2105);fill-opacity:1;stroke:#000000;stroke-width:1.38458;stroke-dasharray:none;stroke-opacity:1" /><path
             d="m 60.372826,58.197831 c -0.415473,0 -0.692455,-0.276986 -0.692455,-0.692461 V 46.426084 c 0,-0.415475 0.276982,-0.692453 0.692455,-0.692453 0.415474,0 0.692456,0.276986 0.692456,0.692453 V 57.50537 c 0,0.415475 -0.276982,0.692461 -0.692456,0.692461 z"
             id="path2061"
             style="stroke-width:1.38491" /><path
             d="m 63.843865,60.967658 c -0.415471,0 -0.692453,-0.276985 -0.692453,-0.692453 V 43.656272 c 0,-0.415475 0.276982,-0.692461 0.692453,-0.692461 0.415475,0 0.692461,0.276986 0.692461,0.692461 v 16.618933 c 0,0.415468 -0.276986,0.692453 -0.692461,0.692453 z"
             id="path2063"
             style="stroke-width:1.38458;stroke-dasharray:none" /><path
             class="st0"
             d="m 40.902356,54.546563 -2.80242,-1.01694 c -0.147495,-0.03914 -0.265492,-0.23467 -0.265492,-0.43023 v -2.268542 c 0,-0.195567 0.117997,-0.391127 0.265492,-0.430238 l 2.80242,-1.01694 c 0.235994,-0.07817 0.442487,0.15645 0.442487,0.430246 v 4.302407 c 0,0.312898 -0.206493,0.508466 -0.442487,0.430237 z"
             id="path2065"
             style="fill:url(#linearGradient2107);fill-opacity:1;stroke:#000000;stroke-width:1.38458;stroke-dasharray:none;stroke-opacity:1" /><path
             d="m 67.314906,64.069185 c -0.415475,0 -0.692453,-0.37242 -0.692453,-0.93103 V 40.79333 c 0,-0.558626 0.276978,-0.931045 0.692453,-0.931045 0.415467,0 0.692453,0.372419 0.692453,0.931045 v 22.344825 c 0,0.55861 -0.276986,0.93103 -0.692453,0.93103 z"
             id="path2067"
             style="stroke-width:1.38458;stroke-dasharray:none" /></g><g
           id="g2081"
           transform="translate(-8.718616,92.631419)"><path
             class="st0"
             d="M 53.118166,61.166547 42.363689,57.540659 c -0.566025,-0.139452 -1.018846,-0.836744 -1.018846,-1.534028 v -8.088504 c 0,-0.697291 0.452821,-1.394575 1.018846,-1.534028 l 10.754477,-3.62588 c 0.905641,-0.278919 1.698075,0.557825 1.698075,1.534028 v 15.340272 c 0,1.115656 -0.792434,1.81294 -1.698075,1.534028 z"
             id="path2071"
             style="fill:url(#linearGradient2101);fill-opacity:1;stroke:#000000;stroke-width:1.38458;stroke-dasharray:none;stroke-opacity:1" /><path
             d="m 60.372826,58.197831 c -0.415473,0 -0.692455,-0.276986 -0.692455,-0.692461 V 46.426084 c 0,-0.415475 0.276982,-0.692453 0.692455,-0.692453 0.415474,0 0.692456,0.276986 0.692456,0.692453 V 57.50537 c 0,0.415475 -0.276982,0.692461 -0.692456,0.692461 z"
             id="path2073"
             style="stroke-width:1.38491" /><path
             d="m 63.843865,60.967658 c -0.415471,0 -0.692453,-0.276985 -0.692453,-0.692453 V 43.656272 c 0,-0.415475 0.276982,-0.692461 0.692453,-0.692461 0.415475,0 0.692461,0.276986 0.692461,0.692461 v 16.618933 c 0,0.415468 -0.276986,0.692453 -0.692461,0.692453 z"
             id="path2075"
             style="stroke-width:1.38458;stroke-dasharray:none" /><path
             class="st0"
             d="m 40.902356,54.546563 -2.80242,-1.01694 c -0.147495,-0.03914 -0.265492,-0.23467 -0.265492,-0.43023 v -2.268542 c 0,-0.195567 0.117997,-0.391127 0.265492,-0.430238 l 2.80242,-1.01694 c 0.235994,-0.07817 0.442487,0.15645 0.442487,0.430246 v 4.302407 c 0,0.312898 -0.206493,0.508466 -0.442487,0.430237 z"
             id="path2077"
             style="fill:url(#linearGradient2103);fill-opacity:1;stroke:#000000;stroke-width:1.38458;stroke-dasharray:none;stroke-opacity:1" /><path
             d="m 67.314906,64.069185 c -0.415475,0 -0.692453,-0.37242 -0.692453,-0.93103 V 40.79333 c 0,-0.558626 0.276978,-0.931045 0.692453,-0.931045 0.415467,0 0.692453,0.372419 0.692453,0.931045 v 22.344825 c 0,0.55861 -0.276986,0.93103 -0.692453,0.93103 z"
             id="path2079"
             style="stroke-width:1.38458;stroke-dasharray:none" /></g><text
           xml:space="preserve"
           transform="matrix(1.421581,0,0,1.421581,-412.6896,-394.07197)"
           id="text2085"
           style="font-size:13.3333px;line-height:1.25;font-family:'Open Sans';-inkscape-font-specification:'Open Sans, Normal';white-space:pre;shape-inside:url(#rect2095);display:inline"><tspan
             x="341.64844"
             y="383.6296"
             id="tspan5487">x   10</tspan></text><text
           xml:space="preserve"
           transform="matrix(1.421581,0,0,1.421581,-343.72962,-394.09048)"
           id="text2089"
           style="font-size:13.3333px;line-height:1.25;font-family:'Open Sans';-inkscape-font-specification:'Open Sans, Normal';white-space:pre;shape-inside:url(#rect2097);display:inline"><tspan
             x="341.64844"
             y="383.6296"
             id="tspan5489">=</tspan></text><text
           xml:space="preserve"
           transform="matrix(1.421581,0,0,1.421581,-278.30232,-393.65549)"
           id="text2093"
           style="font-size:13.3333px;line-height:1.25;font-family:'Open Sans';-inkscape-font-specification:'Open Sans, Normal';white-space:pre;shape-inside:url(#rect2099);display:inline"><tspan
             x="341.64844"
             y="383.6296"
             id="tspan5491">+ 10 dB</tspan></text></g></g></g><style
     type="text/css"
     id="style2517">
	.st0{fill:#FF2A68;}
</style></svg>
